<?xml version="1.0" encoding="UTF-8"?>
<svg xmlns="http://www.w3.org/2000/svg" xmlns:xlink="http://www.w3.org/1999/xlink" viewBox="0 0 224 333.69">
  <defs>
    <style>
      .cls-1 {
        fill: url(#Degradado_sin_nombre-2);
      }

      .cls-2 {
        isolation: isolate;
      }

      .cls-3 {
        fill: #008139;
      }

      .cls-3, .cls-4, .cls-5 {
        opacity: .82;
      }

      .cls-6 {
        fill: #ff384b;
      }

      .cls-4 {
        fill: url(#Degradado_sin_nombre);
      }

      .cls-5 {
        fill: url(#Degradado_sin_nombre-3);
      }

      .cls-7 {
        mix-blend-mode: multiply;
        opacity: .48;
      }
    </style>
    <linearGradient id="Degradado_sin_nombre" data-name="Degradado sin nombre" x1="139.46" y1="24.7" x2="196.52" y2="81.76" gradientUnits="userSpaceOnUse">
      <stop offset="0" stop-color="#fff"/>
      <stop offset="1" stop-color="#000"/>
    </linearGradient>
    <linearGradient id="Degradado_sin_nombre-2" data-name="Degradado sin nombre" x1="32.81" y1="142.49" x2="191.2" y2="300.88" xlink:href="#Degradado_sin_nombre"/>
    <linearGradient id="Degradado_sin_nombre-3" data-name="Degradado sin nombre" x1="58.63" y1="55.15" x2="106.36" y2="102.87" xlink:href="#Degradado_sin_nombre"/>
  </defs>
  <g class="cls-2">
    <g id="Capa_2" data-name="Capa 2">
      <g id="icon">
        <g>
          <g>
            <path class="cls-3" d="M220.88,22.71c0,11.28-2.22,22.25-6.6,32.62-4.22,9.98-10.26,18.93-17.93,26.6-1.5,1.5-3.04,2.93-4.63,4.3-6.57,5.66-13.94,10.23-21.98,13.63-10.36,4.39-21.33,6.61-32.62,6.61-5.2,0-10.34-.47-15.37-1.42-2.54-.47-4.55-2.46-5.05-4.98-1.06-5.34-1.59-10.79-1.59-16.31,0-11.29,2.23-22.26,6.61-32.62,4.22-9.99,10.25-18.94,17.92-26.61,1.5-1.5,3.05-2.93,4.64-4.3,6.57-5.65,13.93-10.22,21.97-13.63,10.36-4.38,21.34-6.6,32.62-6.6,5.2,0,10.33.47,15.37,1.42,2.54.47,4.55,2.45,5.05,4.98,1.06,5.34,1.59,10.78,1.59,16.31Z"/>
            <path class="cls-6" d="M215.17,178.07c-5.64-13.35-13.71-25.32-23.97-35.58-2-2-4.06-3.91-6.19-5.75-8.79-7.56-18.64-13.67-29.39-18.22-13.85-5.86-28.53-8.83-43.62-8.83s-29.76,2.97-43.61,8.83c-10.75,4.55-20.6,10.66-29.38,18.22-2.13,1.83-4.2,3.75-6.2,5.75-10.26,10.26-18.33,22.23-23.97,35.58-5.86,13.86-8.84,28.53-8.84,43.62s2.98,29.76,8.84,43.62c5.64,13.34,13.71,25.31,23.97,35.57,2,2,4.07,3.92,6.2,5.75,8.78,7.57,18.63,13.68,29.38,18.22,13.85,5.87,28.53,8.84,43.61,8.84s29.77-2.97,43.62-8.84c10.75-4.54,20.6-10.65,29.39-18.22,2.13-1.84,4.19-3.75,6.19-5.75,10.26-10.26,18.33-22.23,23.97-35.57,5.86-13.86,8.83-28.54,8.83-43.62s-2.97-29.76-8.83-43.62ZM112,255.69c-18.77,0-34-15.22-34-34s15.23-34,34-34,34,15.22,34,34-15.22,34-34,34Z"/>
            <path class="cls-3" d="M56.98,64.29c0,5.44,1.07,10.73,3.18,15.73,2.04,4.81,4.95,9.13,8.65,12.83.72.72,1.47,1.41,2.23,2.07,3.17,2.73,6.72,4.93,10.6,6.57,5,2.12,10.29,3.19,15.73,3.19,2.23,0,4.44-.18,6.61-.54,1.72-.29,3.08-1.62,3.39-3.33.41-2.32.62-4.69.62-7.08,0-5.45-1.08-10.74-3.19-15.73-2.04-4.82-4.94-9.13-8.64-12.83-.72-.72-1.47-1.41-2.24-2.07-3.17-2.73-6.72-4.93-10.6-6.57-5-2.11-10.29-3.18-15.73-3.18-2.23,0-4.44.18-6.61.54-1.72.29-3.08,1.62-3.39,3.33-.41,2.32-.62,4.68-.62,7.08Z"/>
          </g>
          <g class="cls-7">
            <path class="cls-4" d="M220.88,22.71c0,11.28-2.22,22.25-6.6,32.62-4.22,9.98-10.26,18.93-17.93,26.6-1.5,1.5-3.04,2.93-4.63,4.3-6.57,5.66-13.94,10.23-21.98,13.63-10.36,4.39-21.33,6.61-32.62,6.61-5.2,0-10.34-.47-15.37-1.42-2.54-.47-4.55-2.46-5.05-4.98-1.06-5.34-1.59-10.79-1.59-16.31,0-11.29,2.23-22.26,6.61-32.62,4.22-9.99,10.25-18.94,17.92-26.61,1.5-1.5,3.05-2.93,4.64-4.3,6.57-5.65,13.93-10.22,21.97-13.63,10.36-4.38,21.34-6.6,32.62-6.6,5.2,0,10.33.47,15.37,1.42,2.54.47,4.55,2.45,5.05,4.98,1.06,5.34,1.59,10.78,1.59,16.31Z"/>
            <path class="cls-1" d="M215.17,178.07c-5.64-13.35-13.71-25.32-23.97-35.58-2-2-4.06-3.91-6.19-5.75-8.79-7.56-18.64-13.67-29.39-18.22-13.85-5.86-28.53-8.83-43.62-8.83s-29.76,2.97-43.61,8.83c-10.75,4.55-20.6,10.66-29.38,18.22-2.13,1.83-4.2,3.75-6.2,5.75-10.26,10.26-18.33,22.23-23.97,35.58-5.86,13.86-8.84,28.53-8.84,43.62s2.98,29.76,8.84,43.62c5.64,13.34,13.71,25.31,23.97,35.57,2,2,4.07,3.92,6.2,5.75,8.78,7.57,18.63,13.68,29.38,18.22,13.85,5.87,28.53,8.84,43.61,8.84s29.77-2.97,43.62-8.84c10.75-4.54,20.6-10.65,29.39-18.22,2.13-1.84,4.19-3.75,6.19-5.75,10.26-10.26,18.33-22.23,23.97-35.57,5.86-13.86,8.83-28.54,8.83-43.62s-2.97-29.76-8.83-43.62ZM112,255.69c-18.77,0-34-15.22-34-34s15.23-34,34-34,34,15.22,34,34-15.22,34-34,34Z"/>
            <path class="cls-5" d="M56.98,64.29c0,5.44,1.07,10.73,3.18,15.73,2.04,4.81,4.95,9.13,8.65,12.83.72.72,1.47,1.41,2.23,2.07,3.17,2.73,6.72,4.93,10.6,6.57,5,2.12,10.29,3.19,15.73,3.19,2.23,0,4.44-.18,6.61-.54,1.72-.29,3.08-1.62,3.39-3.33.41-2.32.62-4.69.62-7.08,0-5.45-1.08-10.74-3.19-15.73-2.04-4.82-4.94-9.13-8.64-12.83-.72-.72-1.47-1.41-2.24-2.07-3.17-2.73-6.72-4.93-10.6-6.57-5-2.11-10.29-3.18-15.73-3.18-2.23,0-4.44.18-6.61.54-1.72.29-3.08,1.62-3.39,3.33-.41,2.32-.62,4.68-.62,7.08Z"/>
          </g>
        </g>
      </g>
    </g>
  </g>
</svg>