<?xml version="1.0" encoding="utf-8"?>

<!-- Uploaded to: SVG Repo, www.svgrepo.com, Generator: SVG Repo Mixer Tools -->
<svg version="1.1" id="Icons" xmlns="http://www.w3.org/2000/svg" xmlns:xlink="http://www.w3.org/1999/xlink" 
	 viewBox="0 0 32 32" xml:space="preserve">
<style type="text/css">
	.st0{fill:none;stroke:#000000;stroke-width:2;stroke-linecap:round;stroke-linejoin:round;stroke-miterlimit:10;}
</style>
<g>
	<path d="M28.8,12.4l-2.2-3.2C27.5,8.6,28,7.6,28,6.5C28,4.6,26.4,3,24.5,3h-17C5.6,3,4,4.6,4,6.5c0,1.1,0.5,2.1,1.4,2.8l-2.2,3.2
		C3,12.7,3,13,3,13.3s0.3,0.5,0.5,0.6L5.8,15c1.5,0.7,3.2,0.7,4.7,0l0.3-0.1c1-0.5,2-0.5,3,0l0.3,0.1c0.8,0.4,1.6,0.5,2.4,0.5
		s1.6-0.2,2.4-0.5l0.3-0.1c1-0.5,2.1-0.5,3,0c1.7,0.8,3.7,0.7,5.3-0.3l1.1-0.7c0.2-0.1,0.4-0.4,0.4-0.6C29,12.9,29,12.7,28.8,12.4z"
		/>
	<path d="M21.3,16.6c-0.4-0.2-0.9-0.2-1.3,0l-0.3,0.1c-2,1-4.4,1-6.5,0L13,16.6c-0.4-0.2-0.9-0.2-1.3,0l-0.3,0.1
		c-1,0.5-2.1,0.7-3.2,0.7S6,17.3,4.9,16.8l-0.5-0.3c-0.5,4.5,0.4,9.1,2.7,13C7.3,29.8,7.6,30,8,30h16c0.4,0,0.7-0.2,0.9-0.5
		c2.3-3.8,3.2-8.4,2.8-12.8C25.6,17.6,23.3,17.6,21.3,16.6z M23,25c0,0.6-0.4,1-1,1H10c-0.6,0-1-0.4-1-1v-4c0-0.6,0.4-1,1-1h12
		c0.6,0,1,0.4,1,1V25z"/>
</g>
</svg>