<?xml version="1.0" encoding="UTF-8"?><svg xmlns="http://www.w3.org/2000/svg" xmlns:xlink="http://www.w3.org/1999/xlink" viewBox="0 0 201.39 300"><defs><style>.m{fill:url(#f);}.m,.n,.o{opacity:.82;}.p{isolation:isolate;}.q{fill:url(#e);}.n{fill:#008139;}.o{fill:url(#d);}.r{fill:#ff384b;}.s{mix-blend-mode:multiply;opacity:.48;}</style><linearGradient id="d" x1="125.38" y1="22.21" x2="176.68" y2="73.51" gradientUnits="userSpaceOnUse"><stop offset="0" stop-color="#fff"/><stop offset="1" stop-color="#000"/></linearGradient><linearGradient id="e" x1="29.5" y1="128.1" x2="171.9" y2="270.5" xlink:href="#d"/><linearGradient id="f" x1="52.71" y1="49.58" x2="95.62" y2="92.49" xlink:href="#d"/></defs><g class="p"><g id="c"><path class="n" d="M198.58,20.42c0,10.14-2,20-5.93,29.33-3.79,8.97-9.22,17.02-16.12,23.91-1.35,1.35-2.73,2.63-4.16,3.87-5.91,5.09-12.53,9.2-19.76,12.25-9.31,3.95-19.18,5.94-29.33,5.94-4.68,0-9.29-.43-13.82-1.27-2.28-.43-4.09-2.21-4.54-4.48-.96-4.8-1.43-9.7-1.43-14.66,0-10.15,2-20.01,5.94-29.33,3.79-8.98,9.22-17.03,16.11-23.92,1.35-1.35,2.74-2.63,4.17-3.87,5.91-5.08,12.52-9.19,19.75-12.25,9.31-3.94,19.19-5.93,29.33-5.93,4.67,0,9.29.43,13.82,1.27,2.28.43,4.09,2.21,4.54,4.48.95,4.8,1.43,9.69,1.43,14.66Z"/><path class="r" d="M193.45,160.09c-5.07-12-12.33-22.76-21.55-31.99-1.8-1.8-3.65-3.52-5.57-5.17-7.9-6.8-16.76-12.29-26.42-16.38-12.45-5.27-25.65-7.94-39.22-7.94s-26.76,2.67-39.21,7.94c-9.66,4.09-18.52,9.58-26.41,16.38-1.91,1.65-3.78,3.37-5.57,5.17-9.22,9.22-16.48,19.99-21.55,31.99-5.27,12.46-7.95,25.65-7.95,39.22s2.68,26.76,7.95,39.22c5.07,11.99,12.33,22.75,21.55,31.98,1.8,1.8,3.66,3.52,5.57,5.17,7.89,6.81,16.75,12.3,26.41,16.38,12.45,5.28,25.65,7.95,39.21,7.95s26.76-2.67,39.22-7.95c9.66-4.08,18.52-9.57,26.42-16.38,1.91-1.65,3.77-3.37,5.57-5.17,9.22-9.22,16.48-19.99,21.55-31.98,5.27-12.46,7.94-25.66,7.94-39.22s-2.67-26.76-7.94-39.22ZM100.69,229.87c-16.88,0-30.57-13.68-30.57-30.57s13.69-30.57,30.57-30.57,30.57,13.68,30.57,30.57-13.68,30.57-30.57,30.57Z"/><path class="n" d="M51.23,57.8c0,4.89.96,9.65,2.86,14.14,1.83,4.33,4.45,8.21,7.77,11.53.65.65,1.32,1.27,2.01,1.86,2.85,2.45,6.04,4.44,9.53,5.91,4.49,1.9,9.25,2.87,14.14,2.87,2.01,0,3.99-.16,5.95-.49,1.55-.26,2.77-1.45,3.05-3,.37-2.09.56-4.21.56-6.36,0-4.9-.97-9.65-2.87-14.14-1.83-4.33-4.44-8.21-7.77-11.54-.65-.65-1.32-1.27-2.01-1.86-2.85-2.45-6.04-4.43-9.53-5.91-4.49-1.9-9.25-2.86-14.14-2.86-2.01,0-3.99.16-5.94.49-1.55.26-2.77,1.45-3.05,3-.37,2.09-.56,4.21-.56,6.36Z"/><g class="s"><path class="o" d="M198.58,20.42c0,10.14-2,20-5.93,29.33-3.79,8.97-9.22,17.02-16.12,23.91-1.35,1.35-2.73,2.63-4.16,3.87-5.91,5.09-12.53,9.2-19.76,12.25-9.31,3.95-19.18,5.94-29.33,5.94-4.68,0-9.29-.43-13.82-1.27-2.28-.43-4.09-2.21-4.54-4.48-.96-4.8-1.43-9.7-1.43-14.66,0-10.15,2-20.01,5.94-29.33,3.79-8.98,9.22-17.03,16.11-23.92,1.35-1.35,2.74-2.63,4.17-3.87,5.91-5.08,12.52-9.19,19.75-12.25,9.31-3.94,19.19-5.93,29.33-5.93,4.67,0,9.29.43,13.82,1.27,2.28.43,4.09,2.21,4.54,4.48.95,4.8,1.43,9.69,1.43,14.66Z"/><path class="q" d="M193.45,160.09c-5.07-12-12.33-22.76-21.55-31.99-1.8-1.8-3.65-3.52-5.57-5.17-7.9-6.8-16.76-12.29-26.42-16.38-12.45-5.27-25.65-7.94-39.22-7.94s-26.76,2.67-39.21,7.94c-9.66,4.09-18.52,9.58-26.41,16.38-1.91,1.65-3.78,3.37-5.57,5.17-9.22,9.22-16.48,19.99-21.55,31.99-5.27,12.46-7.95,25.65-7.95,39.22s2.68,26.76,7.95,39.22c5.07,11.99,12.33,22.75,21.55,31.98,1.8,1.8,3.66,3.52,5.57,5.17,7.89,6.81,16.75,12.3,26.41,16.38,12.45,5.28,25.65,7.95,39.21,7.95s26.76-2.67,39.22-7.95c9.66-4.08,18.52-9.57,26.42-16.38,1.91-1.65,3.77-3.37,5.57-5.17,9.22-9.22,16.48-19.99,21.55-31.98,5.27-12.46,7.94-25.66,7.94-39.22s-2.67-26.76-7.94-39.22ZM100.69,229.87c-16.88,0-30.57-13.68-30.57-30.57s13.69-30.57,30.57-30.57,30.57,13.68,30.57,30.57-13.68,30.57-30.57,30.57Z"/><path class="m" d="M51.23,57.8c0,4.89.96,9.65,2.86,14.14,1.83,4.33,4.45,8.21,7.77,11.53.65.65,1.32,1.27,2.01,1.86,2.85,2.45,6.04,4.44,9.53,5.91,4.49,1.9,9.25,2.87,14.14,2.87,2.01,0,3.99-.16,5.95-.49,1.55-.26,2.77-1.45,3.05-3,.37-2.09.56-4.21.56-6.36,0-4.9-.97-9.65-2.87-14.14-1.83-4.33-4.44-8.21-7.77-11.54-.65-.65-1.32-1.27-2.01-1.86-2.85-2.45-6.04-4.43-9.53-5.91-4.49-1.9-9.25-2.86-14.14-2.86-2.01,0-3.99.16-5.94.49-1.55.26-2.77,1.45-3.05,3-.37,2.09-.56,4.21-.56,6.36Z"/></g></g></g></svg>