<?xml version="1.0" encoding="UTF-8"?><svg id="h" xmlns="http://www.w3.org/2000/svg" viewBox="0 0 764.82 584.68"><defs><style>.j{fill:#fff;}.k{fill:#ffdf3c;}.l{fill:#008139;opacity:.82;}.m{fill:#ff384b;}.n{fill:#66bf49;}</style></defs><path class="l" d="M464.74,22.71c0,11.28-2.22,22.25-6.6,32.62-4.22,9.98-10.26,18.93-17.93,26.6-1.5,1.5-3.04,2.93-4.63,4.3-6.57,5.66-13.94,10.23-21.98,13.63-10.36,4.39-21.33,6.61-32.62,6.61-5.2,0-10.34-.47-15.37-1.42-2.54-.47-4.55-2.46-5.05-4.98-1.06-5.34-1.59-10.79-1.59-16.31,0-11.29,2.23-22.26,6.61-32.62,4.22-9.99,10.25-18.94,17.92-26.61,1.5-1.5,3.05-2.93,4.64-4.3,6.57-5.65,13.93-10.22,21.97-13.63,10.36-4.38,21.34-6.6,32.62-6.6,5.2,0,10.33.47,15.37,1.42,2.54.47,4.55,2.45,5.05,4.98,1.06,5.34,1.59,10.78,1.59,16.31Z"/><path class="m" d="M459.03,178.07c-5.64-13.35-13.71-25.32-23.97-35.58-2-2-4.06-3.91-6.19-5.75-8.79-7.56-18.64-13.67-29.39-18.22-13.85-5.86-28.53-8.83-43.62-8.83s-29.76,2.97-43.61,8.83c-10.75,4.55-20.6,10.66-29.38,18.22-2.13,1.83-4.2,3.75-6.2,5.75-10.26,10.26-18.33,22.23-23.97,35.58-5.86,13.86-8.84,28.53-8.84,43.62s2.98,29.76,8.84,43.62c5.64,13.34,13.71,25.31,23.97,35.57,2,2,4.07,3.92,6.2,5.75,8.78,7.57,18.63,13.68,29.38,18.22,13.85,5.87,28.53,8.84,43.61,8.84s29.77-2.97,43.62-8.84c10.75-4.54,20.6-10.65,29.39-18.22,2.13-1.84,4.19-3.75,6.19-5.75,10.26-10.26,18.33-22.23,23.97-35.57,5.86-13.86,8.83-28.54,8.83-43.62s-2.97-29.76-8.83-43.62ZM355.86,255.69c-18.77,0-34-15.22-34-34s15.23-34,34-34,34,15.22,34,34-15.22,34-34,34Z"/><path class="l" d="M300.84,64.29c0,5.44,1.07,10.73,3.18,15.73,2.04,4.81,4.95,9.13,8.65,12.83.72.72,1.47,1.41,2.23,2.07,3.17,2.73,6.72,4.93,10.6,6.57,5,2.12,10.29,3.19,15.73,3.19,2.23,0,4.44-.18,6.61-.54,1.72-.29,3.08-1.62,3.39-3.33.41-2.32.62-4.69.62-7.08,0-5.45-1.08-10.74-3.19-15.73-2.04-4.82-4.94-9.13-8.64-12.83-.72-.72-1.47-1.41-2.24-2.07-3.17-2.73-6.72-4.93-10.6-6.57-5-2.11-10.29-3.18-15.73-3.18-2.23,0-4.44.18-6.61.54-1.72.29-3.08,1.62-3.39,3.33-.41,2.32-.62,4.68-.62,7.08Z"/><path class="k" d="M274.94,303c1.46,1.47,2.98,2.91,4.53,4.29-8.59,7.27-18.17,13.16-28.6,17.56-13.85,5.87-28.53,8.84-43.62,8.84s-29.76-2.97-43.61-8.84c-13.35-5.64-25.32-13.7-35.58-23.97-10.26-10.26-18.33-22.23-23.97-35.57-5.86-13.86-8.84-28.54-8.84-43.62s2.98-29.76,8.84-43.62c5.64-13.35,13.71-25.32,23.97-35.58,10.26-10.26,22.23-18.32,35.58-23.97,13.85-5.86,28.53-8.83,43.61-8.83s29.77,2.97,43.62,8.83c10.43,4.41,20.01,10.3,28.6,17.56-1.55,1.38-3.07,2.82-4.53,4.29-10.55,10.54-18.83,22.83-24.61,36.53-4.93,11.64-7.86,23.83-8.77,36.35-.07.93-.13,1.86-.17,2.8-.09,1.87-.14,3.75-.14,5.64,0-18.78-15.22-34-34-34s-34,15.22-34,34,15.23,34,34,34,34-15.22,34-34c0,1.89.05,3.76.14,5.64.04.94.1,1.87.17,2.8.91,12.52,3.84,24.71,8.77,36.35,5.79,13.69,14.07,25.98,24.61,36.52Z"/><path class="n" d="M616.47,221.69c0,15.08-2.97,29.76-8.83,43.62-5.64,13.34-13.71,25.31-23.97,35.57-10.26,10.27-22.23,18.33-35.58,23.97-13.85,5.87-28.53,8.84-43.62,8.84s-29.76-2.97-43.61-8.84c-10.43-4.41-20.02-10.29-28.6-17.56,1.56-1.4,3.08-2.84,4.53-4.29,10.54-10.54,18.82-22.83,24.61-36.52,4.55-10.76,7.41-22.01,8.52-33.56.09-.93.17-1.86.24-2.79.06-.86.12-1.72.16-2.58.03-.64.06-1.28.08-1.92.02-.51.03-1.02.04-1.53.02-.8.03-1.6.03-2.41,0,18.78,15.23,34,34,34s34-15.22,34-34-15.22-34-34-34-34,15.22-34,34c0-.81-.01-1.61-.03-2.42-.01-.69-.03-1.39-.07-2.08-.01-.48-.03-.97-.06-1.45-.04-.83-.09-1.66-.15-2.49-.07-.94-.15-1.87-.24-2.8-1.11-11.54-3.97-22.79-8.52-33.55-5.79-13.7-14.07-25.99-24.61-36.53-1.46-1.46-2.97-2.9-4.53-4.29,8.58-7.26,18.17-13.14,28.6-17.56,13.85-5.86,28.53-8.83,43.61-8.83s29.77,2.97,43.62,8.83c13.35,5.65,25.32,13.71,35.58,23.97,10.26,10.26,18.33,22.23,23.97,35.58,5.86,13.86,8.83,28.53,8.83,43.62Z"/><path class="j" d="M90.45,467.61v-47.2l-18.06,47.2h-18.53l-18.06-47.2v47.2H0v-96.6h46.1l17.11,44.3,17.11-44.3h46.1v96.6h-35.96Z"/><path class="j" d="M176.15,391.85v16.28h32.16v20.98h-32.16v17.53h36.75v20.98h-72.55v-96.6h71.13v20.98l-35.33-.14Z"/><path class="j" d="M275.32,371.28c4.22,0,8.63.62,13.23,1.86,4.59,1.24,8.79,3.17,12.59,5.8,3.8,2.62,6.94,5.98,9.43,10.07,2.48,4.09,3.72,8.99,3.72,14.7,0,4.88-1.4,9.5-4.2,13.87-2.8,4.37-6.73,7.94-11.8,10.7l-2.22.69,4.44,6.76c1.69,2.95,3.56,5.24,5.62,6.9,2.06,1.66,4.67,2.95,7.84,3.86,1.9.55,4.12.97,6.65,1.24v20.15h-14.1c-2.53,0-4.59-.02-6.18-.07-1.58-.05-2.88-.12-3.88-.21-1-.09-1.88-.21-2.61-.34-.74-.14-1.53-.35-2.38-.62-7.39-1.93-13.25-6.62-17.58-14.08l-10.46-17.66h-5.7v32.71h-34.22v-96.6h51.96l-.16.28ZM257.58,414.2h8.55c3.17,0,5.99-.85,8.48-2.55,2.48-1.7,3.72-4.39,3.72-8.07,0-4.05-1.24-6.95-3.72-8.69-2.48-1.75-5.36-2.62-8.63-2.62h-8.4v21.94Z"/><path class="j" d="M418.84,460.98c-4.75,2.85-10.14,5.04-16.16,6.55-6.02,1.52-12.78,2.28-20.28,2.28-8.98,0-17-1.2-24.08-3.59-7.08-2.39-13.04-5.8-17.9-10.21-4.86-4.42-8.55-9.73-11.09-15.94s-3.8-13.13-3.8-20.77,1.27-14.42,3.8-20.63,6.23-11.52,11.09-15.94c4.86-4.42,10.82-7.84,17.9-10.28,7.07-2.44,15.1-3.66,24.08-3.66,4.75,0,9.11.34,13.07,1.03,3.96.69,7.47,1.82,10.53,3.38,4.01,2.02,7.13,4.85,9.35,8.49,2.22,3.64,3.33,8.26,3.33,13.87v7.59h-22.65l-.47-2.35c-.53-3.5-2.06-5.84-4.59-7.04-1.8-.83-3.91-1.24-6.34-1.24-7.08,0-12.7,2.3-16.87,6.9-4.17,4.6-6.26,11.23-6.26,19.87,0,8.1,1.85,14.35,5.54,18.77,3.7,4.42,8.71,6.99,15.05,7.73,1.69.28,3.49.41,5.39.41,3.8,0,7.79-.5,11.96-1.52,4.17-1.01,8.42-2.44,12.75-4.28l6.34,20.56h.32Z"/><path class="j" d="M496.62,467.61l-4.91-18.22h-25.35l-4.91,18.22h-36.75l33.11-96.6h42.46l33.11,96.6h-36.75ZM486.8,428.42l-8.4-31.6-8.4,31.6h16.79Z"/><path class="j" d="M585.65,371.01c8.98,0,17,1.1,24.08,3.31,7.07,2.21,13.04,5.38,17.9,9.52,4.86,4.14,8.55,9.2,11.09,15.18,2.54,5.98,3.8,12.74,3.8,20.29s-1.27,14.44-3.8,20.42c-2.53,5.98-6.23,11.04-11.09,15.18-4.86,4.14-10.83,7.29-17.9,9.45-7.08,2.16-15.1,3.24-24.08,3.24h-42.93v-96.6h42.93ZM578.52,446.63h7.29c3.49,0,6.5-.69,9.03-2.07,2.53-1.38,4.67-3.26,6.42-5.66,1.74-2.39,3.04-5.27,3.88-8.62.84-3.36,1.27-7.01,1.27-10.97s-.42-7.61-1.27-10.97c-.85-3.36-2.14-6.23-3.88-8.62-1.74-2.39-3.88-4.28-6.42-5.66-2.54-1.38-5.54-2.07-9.03-2.07h-7.29v54.65Z"/><path class="j" d="M707.95,368.8c8.98,0,17,1.22,24.08,3.66,7.07,2.44,13.04,5.87,17.9,10.28,4.86,4.42,8.55,9.73,11.09,15.94,2.53,6.21,3.8,13.09,3.8,20.63s-1.27,14.54-3.8,20.7c-2.54,6.16-6.23,11.45-11.09,15.87-4.86,4.42-10.83,7.82-17.9,10.21-7.08,2.39-15.1,3.59-24.08,3.59s-17-1.2-24.08-3.59c-7.08-2.39-13.04-5.8-17.9-10.21-4.86-4.42-8.55-9.71-11.09-15.87-2.53-6.16-3.8-13.06-3.8-20.7s1.27-14.42,3.8-20.63,6.23-11.52,11.09-15.94c4.86-4.42,10.82-7.84,17.9-10.28,7.07-2.44,15.1-3.66,24.08-3.66ZM707.95,390.88c-4.22,0-7.71.78-10.46,2.35-2.75,1.57-4.91,3.66-6.5,6.28-1.58,2.62-2.67,5.64-3.25,9.04-.58,3.41-.87,6.95-.87,10.63s.29,7.22.87,10.63c.58,3.4,1.66,6.42,3.25,9.04,1.58,2.62,3.75,4.72,6.5,6.28,2.75,1.57,6.23,2.35,10.46,2.35s7.71-.78,10.46-2.35c2.75-1.56,4.91-3.66,6.5-6.28,1.58-2.62,2.69-5.63,3.33-9.04.63-3.4.95-6.95.95-10.63s-.32-7.22-.95-10.63c-.63-3.4-1.74-6.42-3.33-9.04-1.58-2.62-3.75-4.71-6.5-6.28-2.75-1.56-6.23-2.35-10.46-2.35Z"/><path class="j" d="M51.96,486.28c4.22,0,8.63.62,13.23,1.86,4.59,1.24,8.79,3.17,12.59,5.8,3.8,2.62,6.94,5.98,9.43,10.07,2.48,4.09,3.72,8.99,3.72,14.7,0,4.88-1.4,9.5-4.2,13.87-2.8,4.37-6.73,7.94-11.8,10.7l-2.22.69,4.44,6.76c1.69,2.95,3.56,5.24,5.62,6.9,2.06,1.66,4.67,2.95,7.84,3.86,1.9.55,4.12.97,6.65,1.24v20.15h-14.1c-2.53,0-4.59-.02-6.18-.07-1.58-.05-2.88-.12-3.88-.21-1-.09-1.88-.21-2.61-.34-.74-.14-1.53-.35-2.38-.62-7.39-1.93-13.25-6.62-17.58-14.08l-10.46-17.66h-5.7v32.71H.16v-96.6h51.96l-.16.28ZM34.22,529.2h8.55c3.17,0,5.99-.85,8.48-2.55,2.48-1.7,3.72-4.39,3.72-8.07,0-4.05-1.24-6.95-3.72-8.69-2.48-1.75-5.36-2.62-8.63-2.62h-8.4v21.94Z"/><path class="j" d="M142.73,506.85v16.28h32.16v20.98h-32.16v17.53h36.75v20.98h-72.55v-96.6h71.13v20.98l-35.33-.14Z"/><path class="j" d="M284.03,576.67c-4.86,2.02-10.75,3.84-17.66,5.45-6.92,1.61-14.76,2.42-23.52,2.42s-17-1.2-24.08-3.59c-7.08-2.39-13.04-5.8-17.9-10.21-4.86-4.42-8.55-9.71-11.09-15.87-2.53-6.16-3.8-13.06-3.8-20.7s1.27-14.42,3.8-20.63,6.23-11.52,11.09-15.94c4.86-4.42,10.82-7.84,17.9-10.28,7.07-2.44,15.1-3.66,24.08-3.66,7.29,0,13.83.71,19.64,2.14,5.81,1.43,11.51,3.66,17.11,6.69l-6.34,20.56c-4.44-1.84-8.74-3.26-12.91-4.28-4.17-1.01-8.16-1.52-11.96-1.52-1.9,0-3.7.14-5.39.41-6.34.74-11.35,3.52-15.05,8.35-3.7,4.83-5.54,10.93-5.54,18.29,0,3.68.29,7.22.87,10.63.58,3.4,1.66,6.42,3.25,9.04,1.58,2.62,3.75,4.72,6.5,6.28,2.75,1.57,6.23,2.35,10.46,2.35,2.43,0,4.7-.35,6.81-1.04,2.11-.69,3.91-1.77,5.39-3.24v-13.8h-16.63v-15.46h45.15v47.75l-.16-.14Z"/><path class="j" d="M296.39,582.61v-96.6h35.8v96.6h-35.8Z"/><path class="j" d="M400.31,483.8c8.98,0,17,1.22,24.08,3.66,7.07,2.44,13.04,5.87,17.9,10.28,4.86,4.42,8.55,9.73,11.09,15.94,2.53,6.21,3.8,13.09,3.8,20.63s-1.27,14.54-3.8,20.7c-2.54,6.16-6.23,11.45-11.09,15.87-4.86,4.42-10.83,7.82-17.9,10.21-7.08,2.39-15.1,3.59-24.08,3.59s-17-1.2-24.08-3.59c-7.08-2.39-13.04-5.8-17.9-10.21-4.86-4.42-8.55-9.71-11.09-15.87-2.53-6.16-3.8-13.06-3.8-20.7s1.27-14.42,3.8-20.63,6.23-11.52,11.09-15.94c4.86-4.42,10.82-7.84,17.9-10.28,7.07-2.44,15.1-3.66,24.08-3.66ZM400.31,505.88c-4.22,0-7.71.78-10.46,2.35-2.75,1.57-4.91,3.66-6.49,6.28-1.58,2.62-2.67,5.64-3.25,9.04-.58,3.41-.87,6.95-.87,10.63s.29,7.22.87,10.63c.58,3.4,1.66,6.42,3.25,9.04,1.58,2.62,3.75,4.72,6.49,6.28,2.75,1.57,6.23,2.35,10.46,2.35s7.71-.78,10.46-2.35c2.74-1.56,4.91-3.66,6.49-6.28,1.58-2.62,2.69-5.63,3.33-9.04.63-3.4.95-6.95.95-10.63s-.32-7.22-.95-10.63c-.63-3.4-1.74-6.42-3.33-9.04-1.58-2.62-3.75-4.71-6.49-6.28-2.75-1.56-6.23-2.35-10.46-2.35Z"/><path class="j" d="M529.41,582.61l-25.82-44.71v44.71h-35.8v-96.6h37.54l25.5,44.16v-44.16h35.8v96.6h-37.23Z"/><path class="j" d="M647.11,582.61l-4.91-18.22h-25.35l-4.91,18.22h-36.75l33.11-96.6h42.46l33.11,96.6h-36.75ZM637.29,543.42l-8.4-31.6-8.4,31.6h16.79Z"/><path class="j" d="M761.49,557.77v24.84h-68.28v-96.6h35.8v71.76h32.48Z"/></svg>