<?xml version="1.0" encoding="UTF-8"?><svg id="a" xmlns="http://www.w3.org/2000/svg" viewBox="0 0 100 100"><defs><style>.j{letter-spacing:-.07em;}.k{letter-spacing:-.01em;}.l{font-size:12.49px;}.l,.m{font-family:Pulpo-Bold, Pulpo-Bold;font-weight:700;}.n{letter-spacing:.01em;}.o{letter-spacing:0em;}.m{font-size:17.65px;}</style></defs><path d="M57.59,38.19l-13.95.08c-2.25-1.01-4.49-2.47-5.47-4.84-.29-.71-.67-1.78-.87-2.52-.46-1.74-5.56-23.52-5.54-23.76.02-.31.34-.02.48.12.53.54,25.46,30.5,25.33,30.92Z"/><path d="M68.22,8.81c.1.28-5.17,17.82-5.37,18.52-1.53,5.46-1.24,6.86-4.26,9.05-.22.16-.86.56-1.09.49s-5.57-6.64-6.13-7.34c-.07-.4,16.07-20.27,16.42-20.58.14-.13.21-.18.43-.15Z"/><path d="M57.57,19.31c.41.51.48.62.06,1.2-.12.16-.31.28-.42.43-1.81,2.47-3.83,4.8-5.77,7.16-.26.31-.38.91-.81.66-.12-.07-.88-.94-1.03-1.12-1.93-2.25-3.87-4.58-5.69-6.93-.24-.31-.8-.69-.57-1.11l7.46-7.39c.13,0,.2.02.31.08.17.1.77.77.96.96.76.8,1.44,1.69,2.19,2.5,1.11,1.21,2.27,2.27,3.32,3.57Z"/><path d="M47.12,14.78l-1.43-2s4.34-10.74,4.92-10.74c.61,0,5.15,11.52,5.14,11.65,0,.08-.8,1.14-.87,1.2-.1.09-.16.11-.29.07l-3.67-3.8c-.08-.06-.14-.04-.23,0-.06.03-2.74,2.69-3.57,3.62Z"/><path d="M44.6,12.57c.66.82,1.26,1.7,1.91,2.53.05.16.02.24-.06.37-.19.32-3.35,3.55-3.67,3.64s-.55-.46-.75-.68c-.51-.57-1.47-2.6-1.52-2.79-.3-1.33-2.84-10.69-2.56-10.9l.23.07c.4.51,4.72,5.65,6.42,7.76Z"/><path d="M58.53,19.24l-3.22-3.68c.31-.37.54-.8.84-1.17,1.88-2.36,7.32-8.45,7.42-8.43.19.04.06.52.02.63-.41,1.29-.9,2.59-1.27,3.88-.55,1.92-1.05,3.89-1.66,5.81-.34,1.07-1.93,3.06-2.13,2.95Z"/><path d="M49.74,53.42l-5.94,4.64c-.41-.04-3.53-5.22-3.51-5.51.02-.41,4.17-3.43,4.43-3.57.13,0,5.32,3.92,5.02,4.44Z"/><path d="M49.56,43.64s-4.01,3.87-4.76,4.42c-.35-.32-4.58-3.47-4.58-3.97,0-.33,2.42-4.03,3.2-4.81.52-.52.65-.03,1.05.26,1.76,1.28,3.38,2.75,5.1,4.09Z"/><path d="M51.47,44.26c-.12-.15-.12-.35,0-.5l6.09-4.64c.24.02,2.49,3.57,3.06,4.8.38.82-4.19,4.16-4.43,4.14-1.66-1.15-3.18-2.5-4.71-3.8Z"/><path d="M50.41,52.68c-.32-.03-3.14-2.58-4.23-3.47-.73-.6-1.22-.53-.15-1.38,1.21-.96,4.35-3.32,4.53-3.32.31.03,4.97,3.89,4.95,4.11,0,0-4.65,4.11-5.1,4.06Z"/><path d="M56.57,57.83c-.24-.03-5.44-4.4-5.42-4.66.22-.36,4.88-4.08,5.18-4.04l4.01,3.16c.21.41-3.28,5.59-3.77,5.54Z"/><path d="M50.57,53.74c.27,0,5.22,4.14,5.2,4.43s-5.48,2.13-5.73,2.12c-.24-.01-5.23-1.66-5.11-2.1.01-.06,5.3-4.45,5.64-4.45Z"/><path d="M56.29,38.91c.26.41-5.29,4.82-5.97,4.47-.78-.41-5.08-4.04-5.26-4.29-.16-.22.49-.19.65-.19,2.93-.03,5.84-.02,8.77-.08.26,0,1.72-.04,1.8.09Z"/><path d="M42.42,49.87c-.32.26-.68.47-1.01.72-.26.2-1.31,1.37-1.62.93l-.04-5.97.29-.49,4.02,3.35c-.22.5-.78.7-1.14.99-.17.14-.35.34-.5.46Z"/><path d="M60.91,45.44s-.12,6.24-.49,6.14l-3.52-2.79c-.32-.4,3.63-3.28,3.7-3.31.1-.05.2-.05.31-.04Z"/><text class="m" transform="translate(0 80.95)"><tspan x="0" y="0">CUMBRI</tspan><tspan class="j" x="75.79" y="0">T</tspan><tspan x="86.66" y="0">A</tspan></text><text class="l" transform="translate(4.22 94.44)"><tspan class="k" x="0" y="0">D</tspan><tspan x="9.42" y="0">E LA SIER</tspan><tspan class="n" x="72.44" y="0">R</tspan><tspan class="o" x="82.12" y="0">A</tspan></text></svg>