<?xml version="1.0" encoding="UTF-8"?><svg id="f" xmlns="http://www.w3.org/2000/svg" viewBox="0 0 100 100"><path d="M100,50c0,27.61-22.39,50-50,50S0,77.61,0,50,22.39,0,50,0s50,22.39,50,50ZM95.98,50c0-25.39-20.59-45.98-45.98-45.98S4.02,24.61,4.02,50s20.59,45.98,45.98,45.98,45.98-20.59,45.98-45.98Z"/><path d="M74.37,38.58c1.37-.15,3.84-.22,4.9.78,1.57,1.47.55,5.35.87,7.36.08.52.74.77.74,1.2s-.63.68-.73,1.11c-.26,1.14.09,3.23-.02,4.52-.02.21-.09.64-.17.81-.29.6-2.57.56-2.97.06-.51-.62-.05-3.71-.23-4.64-.65-.38-1.59-.62-1.78.36-.12.62-.04,1.54-.05,2.22-.01.49.11,1.84-.21,2.17-.41.43-2.74.44-2.98-.37-.31-1.43.35-4.23-.29-5.45-.11-.21-.35-.34-.43-.54-.33-.75.37-.78.58-1.32.28-.72.09-1.2.1-1.84,0-2.52-.68-6.04,2.69-6.41ZM76.77,46.13v-4.06c-.44-.46-1.16-.25-1.68-.06-.09.19-.14.39-.16.6-.04.42-.05,3.19.05,3.41.19.38,1.4.22,1.79.11Z"/><path d="M33.39,49.62l-.29,4.85c-.28.47-2.33.34-2.79.1-.66-.35-.3-2.08-.3-2.65.01-.89.1-2.23-.22-3.04-.13-.33-.66-.8-.63-1.06.24-.53.75-.83.83-1.43.43-2.96-1.56-7.54,3.09-7.84,2-.13,4.45-.22,5.21,2.06l.16,6.12.75,1.2-.75,1.08c.07.87-.11,1.73-.12,2.6,0,.64.41,2.66-.35,3s-2.77.41-2.9-.73c-.14-1.24.13-2.72-.02-3.99-.14-.46-1.32-.51-1.69-.27ZM34.97,41.92c-.51-.25-1.1-.09-1.62.04-.08,1.34-.29,2.75-.1,4.08l.13.12c.4.07,1.55.26,1.69-.22.11-.39.06-2.59.03-3.12-.02-.3-.12-.6-.13-.9Z"/><path d="M24.59,41.92c-.43-.12-1.61-.32-1.72.26l.02,8.97c.18.44,1.48.34,1.66.07.3-.45-.01-1.95.34-2.17.44-.28,2.65-.38,2.95.07.42.65.2,3.05-.11,3.77-.91,2.11-3.81,2.17-5.75,1.77-3.22-.67-1.99-3.18-2.38-5.31-.11-.59-.77-1-.82-1.35-.07-.47.74-.86.84-1.5.49-3.19-1.61-7.62,3.2-7.95,3.91-.27,5.87,1.06,5.13,5.24-.19,1.06-.76,1.81-1.95,1.53-1.4-.33-1.25-2.29-1.41-3.41Z"/><path d="M55.15,49.61c-.24.71-.56,1.7.46,1.82.79.09,4.01-.29,4.36.25.21.32.23,2.48-.03,2.78-.51.59-1.84.22-2.48.21-2.71-.04-5.47.54-5.79-3.08-.07-.77.13-1.88-.02-2.57-.1-.42-.74-.71-.73-1.11.01-.35.67-.72.75-1.2.36-2.29-1.02-6.7,1.66-7.86,1.01-.44,4.56-.42,5.76-.31.29.03.69.06.86.33.24.39.25,2.45-.05,2.76-.86.63-4.33-.27-4.81.38-.33.44-.06,1.62-.06,2.22,0,.5-.4,1.84.38,1.99.7.13,2.75-.22,3.19.17s.43,2.23.13,2.73c-.59.97-2.66.03-3.57.49Z"/><path d="M46.54,38.57c.53-.09,1.95-.12,2.22.43.08.16.16.6.18.8.22,2.1-.51,5.15.06,7.08.11.38.75.8.71,1.13-.18.42-.75.76-.85,1.22-.22,1,.2,2.27-.08,3.28-.47,1.7-1.6,2.17-3.24,2.28-1.81.12-4.23.01-4.91-2.03-.2-.61-.23-2.94,0-3.52.3-.75,2.76-.56,2.98-.11.29.56-.04,1.82.23,2.15.18.23,1.43.23,1.58.04.21-.24.21-1.75.16-2.11-.09-.57-.85-.77-.75-1.41.04-.3.69-.73.76-1.09l.03-7.44c.09-.41.54-.64.92-.7Z"/><path d="M67.36,41.9c-.38.78-.11,1.47-.1,2.21s-.11,1.89,0,2.6c.12.75,1.15.74.52,1.72-.16.24-.47.39-.52.67l-.07,5.01c-.24.76-1.57.73-2.24.66-.57-.06-.95-.19-1.03-.81-.16-1.12.26-4.32-.13-5.07-.18-.34-.64-.46-.64-.99,0-.56.66-.73.75-1.42.18-1.29-.1-2.96-.01-4.3-.18-.61-1.74,0-2.31-.61-.39-.42-.61-3.15.55-3.04l7.1.05c.88.27,1.01,3.31-.28,3.31h-1.57Z"/><rect x="19.62" y="73.4" width="60.4" height="1.08"/><path d="M44.01,29.82c-.43.26-.7.22-.9.34-.1.06-.15.28-.27.38-.72.61-1.32.11-1.76.29-.35.14-.44.65-1.16.9-.93.32-1.11-.05-1.71.01-.55.06-1.35.74-1.87.84s-2.04.14-2.6.12c-.52-.02-1.52-.35-1.94-.32s-1.17.66-1.63.75c-.16-.01-.4-1.01-.16-1.24.07-.07,1.54-.68,1.69-.7.51-.05,1.45.29,2.04.32.37.02,2.04,0,2.29-.09.89-.29,1.77-1.04,2.8-.89.21.03.14.22.22.23,1.04.13,1.75-2.35,2.91-1.09.24-.18.46-.56.73-.67.22-.1.48-.06.7-.17.41-.19.83-.63,1.25-.71.23-.05.49.07.62,0s.47-.96.83-1.24c.3-.23.84-.35,1.2-.53.41-.21.68-.66,1.28-.68.8.23,1.63.32,2.4.64,1.04.42,2.39,1.73,3.2,1.99.36.12.71.08,1.11.19.77.21,1.53.94,2.21,1.15.41.12.95.02,1.42.1.92.14,1.59.96,2.6.77.58-.11,1.59-.93,2.16-1.21.68,0,1.52-.3,2.18-.11.43.13,1.01.77,1.58.79s1.49-1.12,2.35-.5c.37.26,0,.97-.21,1.29-.84-.59-1.32.61-2.36.41-.64-.12-1.57-.85-2.08-.85-.18,0-.9.1-1.06.15-1.34.4-1.59,1.36-3.37,1.15-.8-.09-1.25-.61-1.77-.72-.55-.11-1.24.09-1.77-.07s-1.39-.94-1.99-1.15c-.39-.13-.78-.1-1.19-.22-1.13-.32-2.24-1.6-3.45-2.07-.68-.26-1.32-.22-1.95-.5-.42.45-1.45.67-1.81,1-.27.24-.49,1.08-.92,1.35s-.76,0-1.02.08c-.09.03-.65.42-.82.52Z"/><path d="M40.37,57.62c.5-.11,2.87-.09,3.41,0,2.04.34,1.17,3.42,1.38,4.79.06.35.42.59.42.87s-.37.53-.42.87c-.15.92.26,1.85-.44,2.7-.82,1-3.36.5-4.55.54-.47-.24-.1-2.61-.22-3.24-.06-.32-.44-.52-.44-.87,0-.3.25-.4.34-.64.44-1.15-.21-3.62.21-4.88.09-.06.19-.11.3-.14ZM43.11,59.66c-.63-.17-1.01-.27-1.09.48-.1.99-.13,4.04.04,4.96.02.09.04.27.15.3l.72-.02.18-.15v-5.57Z"/><path d="M20.02,57.62c.44-.1,2.96-.09,3.42,0,2.01.41,1.13,3.54,1.38,4.9.06.32.46.53.41.85-.04.27-.46.51-.51.92-.04.32.12.75.09,1.17-.04.75-.42,1.59-1.16,1.87-.51.19-2.95.22-3.55.14-.12-.02-.24-.01-.33-.1-.46-.35-.06-2.28-.16-2.98-.07-.5-.4-.65-.53-1.1.39-.47.48-.79.54-1.41.06-.66-.13-3.87.11-4.11.06-.06.21-.12.3-.14ZM22.76,65.23v-4.76c0-.07-.17-.85-.21-.87-.25-.18-.81-.09-.93.27-.16.5-.1,3.58-.05,4.29.01.21.1,1.11.21,1.19.22.08.91.12.98-.12Z"/><path d="M37.91,30v-8.12l-.92,2.06c-.28.93-.22,2-.55,2.92-.11.31-.98,1.76-1.35,1.41-.47-1.47.61-2.42,1.13-3.68s.73-2.72,1.34-3.86c.19-.36,1.44-1.93,1.75-2.26,2.82-2.95,8.61-.67,12.3-.91.7-.05,3.94-.96,4.22-.55.25,1.19-.31.87-1.06,1.01-1.93.36-2.93.71-5.01.62-3.69-.17-9.78-2.43-10.76,2.88l-.03,8.31-.16.16-.91.02Z"/><path d="M57.83,20.15l.98-.06c.25.81.6,1.4,1.43,1.72.39.15.82.14,1.14.27.35.15.73.81,1.21.95.66.2,1.43-.03,1.68-.71.19-.52-.46-1.15-.68-1.69-.6-1.41-.19-2.36-.52-3.48-.25-.86-1.54-2.03-2.47-1.85-.68.13-1.3,1.3-1.52,1.3-.48-.17-1.02-.92-1.58-.6-.19.11.18.62.27.71.53.54,1.29-.04,1.45,1.05.07.46-.54.4-.91.36-.97-.11-2.3-1.53-2.11-2.54.08-.44,1.48-.81,1.91-.72.25.05.66.33.81.3.47-.11.93-.96,1.9-1,.77-.03,1.42.71,2.01.59.22-.04.41-.25.68-.3,1.47-.24,2.35.48,1.62,1.94-.22.44-.81.75-.9,1.16-.18.81,0,2.09.36,2.84.38.81,1.21,1.33.71,2.34-.63,1.26-2.06,1.87-3.35,1.18-.34-.18-.69-.6-.99-.74-.27-.13-.59-.11-.85-.23-1.28-.57-2.17-1.25-2.28-2.76ZM64.22,15.49c-.26,0-.58-.08-.76.16l.33.59c.37.01.45-.46.43-.76Z"/><path d="M67.14,67.18c-.11.35-1.59.39-1.73.08s.07-1.99-.11-2.67c-.07-.28-.36-.37-.33-.65.02-.21.25-.29.31-.46.05-.15.11-.75.13-.95.05-.6-.13-2.97.1-3.26.07-.09.17-.13.28-.15.39-.07,2.39-.06,2.79.02.33.07.88.51,1.03.81.23.47.17,2.69.14,3.34-.02.3-.21.59-.2.73.09.93.3,1.8.2,2.84-.09.91-.97.6-1.67.49-.29-.21-.08-2.06-.18-2.5h-.76v2.33ZM67.14,60.96v2l.18.15.64-.08c.12-.17,0-1.9-.11-2.07-.15-.22-.5-.03-.71,0Z"/><path d="M77.18,59.14c.79-.12,2.15-.08,2.68.62s.12,2.58.27,3.52c.06.37.43.57.43.76,0,.24-.38.34-.43.65-.16.82.33,1.95-.6,2.54-.47.3-2.42.32-2.93.12-1.23-.48-.67-1.68-.81-2.55-.06-.39-.46-.56-.43-.87.02-.21.24-.28.31-.46.53-1.46-.78-3.99,1.51-4.33ZM78.4,60.96l-.85.02c-.23.35-.02.66-.01,1.01.03,1.22-.04,2.45.01,3.67.11.33.6.13.85.07v-4.76Z"/><path d="M54.29,62.12c-.21-.19-.11-.88-.14-1.16-1.48-.45-.68,1.04-.86,1.94l.57-.21c.47.59,1.19.35,1.7.94.6.71.59,2.97-.22,3.54-.74.52-2.81.25-3.72.18-.52-2.26.81-1.52,2.36-1.65l.13-.09.05-.55c-.21-.06-.31.24-.47.21-.09-.02-.26-.27-.42-.34-.52-.23-1.38-.2-1.62-.98-.17-.56-.15-2.62-.09-3.28.08-.93.55-1.44,1.48-1.55.87-.1,2.58-.07,2.83,1.04.05.23.07,1.62,0,1.8-.12.35-1.34.36-1.58.15Z"/><path d="M27.95,63.01c.61.25,1.19-.19,1.81.13.18.15.2,1.3.08,1.49-.07.06-.27.22-.32.22h-1.57v.87h2.22s.3.17.32.22c.07.38.21,1.36-.24,1.49-.49.14-2.97.05-3.43-.21-.93-.53-.45-1.83-.63-2.61-.06-.28-.41-.47-.4-.65.02-.23.36-.4.42-.67.2-1.06-.54-3.19.61-3.93.46-.29,2.75-.33,3.32-.21.53.11.51,1,.38,1.42-.21.7-2.12-.02-2.58.45v2Z"/><path d="M48.41,60.85c-.14.09-.18,1.9-.01,2.12.31.39,1.34-.2,1.8.26.33.34.14,1.62-.22,1.62h-1.57c-.08.18-.2.87.05.87h2.17s.25.11.27.18l-.11,1.5c-1.44-.03-4.01.66-4.23-1.41-.05-.44.08-1,0-1.41-.06-.31-.44-.41-.42-.63s.36-.4.42-.67c.26-1.36-.73-3.92,1.46-4.17.4-.04,2.27-.07,2.58.02.43.13.39,1.4.13,1.71h-2.33Z"/><path d="M64.16,65.72c.37.1.45,1.57-.02,1.71s-2.92.06-3.34-.19c-1.08-.65-.48-1.93-.72-2.74-.06-.21-.42-.32-.4-.54s.36-.4.42-.67c.25-1.31-.7-3.87,1.36-4.16.35-.05,2.44-.07,2.68,0,.41.14.35,1.35.16,1.69-.48.34-1.93-.29-2.47.19v2c.48.24.88-.03,1.34,0,1.17.1.75,1.83.23,1.83h-1.57v.87h2.33Z"/><path d="M73.54,60.97c-.26.4-.03.76-.02,1.12.01.39-.06.96,0,1.3.05.27.36.34.33.65-.02.22-.28.3-.33.55-.17.92.16,1.88-.13,2.73-.33.2-1.55.25-1.69-.15-.17-.51.08-1.82-.02-2.47-.06-.37-.38-.53-.41-.67-.05-.25.36-.47.41-.74.12-.64-.09-1.58,0-2.26-.52-.31-1.17.15-1.3-.67-.09-.52-.13-1.16.47-1.24.37-.05,3.46-.03,3.63.06.37.19.39,1.17.2,1.5s-.82.27-1.16.3Z"/><path d="M33.12,59.25c.34.34,0,3.42.14,4.14.06.3.38.39.41.56.06.29-.34.35-.39.65-.06.36-.02.74-.01,1.11,1.52.18,3.05-.68,2.54,1.64l-.13.09c-.98-.11-3.01.35-3.72-.36s-.28-1.57-.46-2.36c-.07-.29-.46-.55-.42-.88,0-.04.37-.21.43-.67.1-.69-.16-3.61.14-3.92.2-.2,1.27-.2,1.46,0Z"/><path d="M58.98,64.27c-.08.12-.22.05-.27.42-.08.6.13,2.14-.06,2.54-.15.31-1.33.3-1.52.11-.35-.35-.05-2.17-.16-2.76-.06-.31-.44-.41-.42-.63s.36-.4.42-.67c.19-.97-.11-2.51,0-3.57.02-.21.04-.43.24-.52.32-.13,1.35-.2,1.47.22.25.83-.12,2.78.02,3.77.07.54.68.5.29,1.09Z"/><path d="M58.8,80.6l.18-.15c.67.1.5-.16.78-.4.11-.1.81-.45.66-.1-.12.27-.55.27-.65.49h.97s0,.43,0,.43h-1.41s0,.76,0,.76l1.3.05c.08.61-.93.31-1.3.38v.65h1.52s-.1.37.11.32l.76-1.24c0-.28-.95-1.17-.76-1.35.68-.12.76.67,1.19.97.06-.27.78-1.25,1.08-.97l-.83,1.35.94,1.35c-.67.16-.85-.58-1.24-.97l-.76.97h-2.54v-2.54Z"/><path d="M59.89,29.35l-.95-.72c.24-1.65-.07-3.51.69-5.03l.9.51c-.58,1.69-.28,3.51-.64,5.24Z"/><path d="M55.34,80.6l.27-.17c.33,0,.95,1.4,1.14,1.74.27.18,1.01-2.33,1.51-1.57v2.54h-.54v-1.52l-.92,1.2-.92-1.2v1.52h-.54v-2.54Z"/><path d="M69.38,80.8c1.32,1.32-.68,3.21-2.01,2.07-1.44-1.24.66-3.42,2.01-2.07ZM68.08,80.9c-1.07.24-.99,2.2.6,1.79,1.06-.27.66-2.07-.6-1.79Z"/><polygon points="36.94 80.44 37.37 80.44 37.37 81.52 38.68 81.58 38.78 80.44 39.21 80.44 39.21 83.15 38.78 83.15 38.72 82.06 37.37 82.06 37.37 83.15 36.94 83.15 36.94 80.44"/><path d="M45.06,83.15l-.52-.02-.25-.61h-1.21s-.3.62-.3.62h-.53s1.2-2.68,1.2-2.68c.07-.04.27-.03.35,0,.24.1,1.05,2.28,1.26,2.69ZM43.76,81.2c-.23-.24-.42.8-.54.87h.87s-.33-.87-.33-.87Z"/><path d="M52.19,80.46l1.2,2.69-.52-.02-.25-.61h-1.21s-.3.62-.3.62h-.53s1.09-2.52,1.09-2.52l.52-.16ZM52.42,82.06l-.54-.86-.33.86h.87Z"/><polygon points="32.93 80.44 33.37 80.44 33.47 81.58 34.67 81.58 34.77 80.44 35.21 80.44 35.21 83.15 34.77 83.15 34.71 82.06 33.37 82.06 33.37 83.15 32.93 83.15 32.93 80.44"/><polygon points="45.27 80.44 45.71 80.44 45.81 81.58 47.11 81.63 47.11 80.44 47.55 80.44 47.55 83.15 47.11 83.15 47.05 82.06 45.71 82.06 45.71 83.15 45.27 83.15 45.27 80.44"/><path d="M48.63,80.44v1.89c0,.39.96.54,1.2.23s0-1.49.11-1.94l.53-.18v1.89c0,.74-1.24,1-1.81.73-.14-.07-.46-.54-.46-.62v-2h.43Z"/><path d="M40.29,80.44v1.79c0,.62,1.41.73,1.41-.11v-1.68h.43v2c0,.64-1.45.96-1.98.49-.06-.06-.3-.46-.3-.49v-2h.43Z"/><path d="M30.8,82.46c.15.17.44.25.67.26.51.02,1.07-.58,1.09.1-1.18.85-2.77.13-2.42-1.44.2-.87,1.42-1.22,2.14-.78.33.21.41.38.04.58-.96-.92-2.35.36-1.52,1.28Z"/><path d="M65.38,80.47c.52-.11,1.05-.02,1.44.36l-.27.36c-1.65-1.3-2.5,1.69-.65,1.54.1,0,1.32-.48.82.16-.39.5-1.59.35-2.01-.16-.66-.79-.34-2.04.68-2.25Z"/><polygon points="64 80.44 64 83.15 63.56 83.1 63.47 80.62 64 80.44"/><rect x="35.86" y="80.44" width=".43" height="2.71"/><path d="M54.04,82.61c0,.39.04,1.16-.54,1.08l.04-.98.5-.1Z"/></svg>