<?xml version="1.0" encoding="UTF-8"?><svg id="c" xmlns="http://www.w3.org/2000/svg" viewBox="0 0 193.22 47.31"><g id="d"><path d="M86.41,31.46c0-1.03.17-2,.52-2.9s.82-1.68,1.44-2.35c.61-.67,1.36-1.19,2.22-1.58.87-.38,1.81-.57,2.85-.57.77,0,1.48.06,2.13.18.65.12,1.26.29,1.81.52l.44,4.24h-.02c-.24-.53-.52-1.06-.85-1.59-.33-.53-.71-1-1.14-1.42-.43-.42-.91-.75-1.44-1.01-.53-.26-1.12-.39-1.76-.39-.61,0-1.18.12-1.72.36s-1,.58-1.4,1.03c-.4.45-.71,1-.93,1.66-.22.65-.34,1.4-.34,2.23,0,1,.15,1.93.46,2.77.3.84.72,1.56,1.25,2.17.53.61,1.15,1.08,1.87,1.42.72.34,1.5.51,2.33.51.45,0,.89-.05,1.33-.15.44-.1.85-.26,1.24-.5.39-.23.73-.53,1.03-.88.3-.36.53-.79.7-1.31l.08.02c-.17.81-.45,1.5-.82,2.08-.38.58-.82,1.05-1.32,1.42-.5.36-1.05.63-1.66.8-.6.17-1.22.26-1.85.26-.87,0-1.7-.14-2.49-.43-.79-.28-1.47-.72-2.05-1.3-.58-.58-1.04-1.31-1.39-2.19-.34-.88-.52-1.91-.52-3.1h0ZM55.56,23.44c.76-.98,1.49-1.24,1.9-1.17v.05h.12c.67.26.46,2.89.93,4.59.16.56.36,1.1.61,1.62-.01.06-.01.11,0,.17.48,2.03,1.32,3.96,2.47,5.7-.46.3-1.61.81-3.93.69-1.95-.15-3.66-1.37-4.43-3.17.04-1.22.18-2.44.42-3.63.27-1.74.93-3.39,1.91-4.84h0ZM47.93,7.37c3.88,1.97,4.37,4.59,4.38,4.7,0,.01,0,.03,0,.04-.42.86-.74,1.76-.94,2.7-.46.15-.9.35-1.32.6-.37.21-.98-.12-1.15-.23-.17-.1-.38-.23-.55-.35-1.08-.72-2.25-1.29-3.47-1.7-1.56-.61-3.16-1.1-4.79-1.46-.79-.17-1.29-.95-1.11-1.74.03-.14.08-.27.15-.4.48-.86,1.02-1.68,1.62-2.46,2.34-.86,4.93-.75,7.19.32ZM59.46,2.65h-.03c.6,1.13,1,2.34,1.2,3.6-.88.21-1.75.48-2.6.81-2.06.75-3.83,2.12-5.07,3.93-.95-2-2.59-3.59-4.61-4.49-2.04-1-4.36-1.27-6.58-.75,2.5-2.93,5.96-4.87,9.77-5.47,1.48-.23,2.97-.32,4.46-.27,1.42.45,2.64,1.39,3.46,2.64h0ZM66.76,22.93c-2.32.85-4.9.62-7.05-.61-.21-.75-.48-1.49-.81-2.2.52-1.07.89-2.21,1.07-3.38.06-.42-.17-.83-.56-1-1.75-.72-3.6-1.16-5.49-1.31-.51-.02-1.02.02-1.52.11.75-3.07,3-5.54,5.98-6.58l-.02-.02c9.98-3.81,13.78,3.13,13.95,3.46.9,2.08.99,4.42.25,6.56-.88,2.17-2.83,3.84-5.8,4.96h0ZM60.15,28.15c.18-1.55.13-3.11-.15-4.64,1.23.57,2.57.86,3.92.87,1.08,0,2.16-.2,3.17-.58,3.23-1.23,5.38-3.08,6.35-5.51.46-1.16.66-2.41.59-3.66,1.34,4.9,1.64,10.02.9,15.05-2.48-.83-5.07-1.31-7.69-1.41-3.93-.15-6.13-.13-7.09-.11h0ZM65.74,37.01v.03c-3.53-1.85-5.08-6.35-5.54-7.93.96,0,3.16,0,7,.11,2.58.1,5.13.58,7.57,1.42-.37,2.22-1.05,4.38-2.03,6.41-.14.29-.3.57-.46.81-2.21.52-4.53.22-6.54-.85ZM57.62,36.09h.68c1.35.1,2.69-.22,3.86-.9.85,1.1,1.91,2.01,3.13,2.67,1.49.79,3.15,1.22,4.84,1.23.48,0,.96-.03,1.44-.11-3.3,4.84-7.85,5.59-13.14,3.56-3.74-1.43-4.98-5.2-5.19-8.75,1.04,1.38,2.65,2.22,4.38,2.29h0ZM61.56,6.06c-.22-1.37-.67-2.69-1.33-3.91-.46-.73-1.04-1.37-1.73-1.89,5.34.85,10.05,3.96,12.92,8.55-1.76-1.68-4.93-3.58-9.85-2.75h0ZM40.18,38.61s0,0,0,0l-1.97-.2v-3.01c0-.56,1.02-1.01,1.51-1.14.24-.06.38-.31.33-.55,0,0,0,0,0-.01-.05-.25-.29-.4-.53-.34,0,0,0,0,0,0-.26.06-.51.15-.76.26h-.08c-.31.1-.62.15-.94.17-.35-.02-.69-.08-1.02-.19-.24-.11-.5-.2-.76-.26-.24-.04-.47.14-.5.4-.03.22.09.43.29.51.5.13,1.51.57,1.51,1.14v3.05l-1.91.22c-.24.03-.42.27-.38.53.03.21.18.38.38.4h.05l2.34-.23,2.37.2h.05c.23,0,.42-.18.45-.42.02-.26-.16-.49-.41-.51h0ZM42.98,34.52s.02.03.03.04c.38-.1,2-1.13,2.16-1.38.21-.54.35-1.11.44-1.69.11-.81.71-1.79,1.35-2.83.59-.96,1.19-1.95,1.48-2.91.29-1.1.18-2.28-.31-3.3h0s-.02-.04-.04-.04h0s0,0,0,0c-.02,0-.05.01-.06.04h0s-.09.22-.09.22c-.31.81-1.07,1.39-1.94,1.46l-.56.06c-.9.12-1.53.37-1.76.71-.1.14-.12.28-.09.45.09.43,1.38.52,1.93.56.19.01.34.02.44.04.16.03.29.12.36.26s.08.31,0,.45h0s-1.85,3.31-1.85,3.31c-.07.14-.21.25-.35.28-.12.03-.24,0-.34-.08-.45-.39-.66-.47-1.17-.47-.14,0-.28-.06-.37-.17-.09-.11-.13-.25-.11-.39.03-.17.05-.32.07-.47.11-.69.17-1.1.2-1.92,0-.54-.14-1.13-.27-1.71-.22-.93-.44-1.89-.13-2.76.23-.64,1.33-1.14,2.22-1.54.27-.12.53-.24.7-.34.02-.01.04-.04.04-.07,0-.04-.03-.08-.08-.08h-3.57c-1.6-.02-2.77,1.21-2.89,2.8l.06,7.42c.33.04,1.05.24,2.28,1.1h0c.98.77,1.75,1.78,2.23,2.92h0ZM36.89,23.08c-.12-1.59-1.29-2.82-2.88-2.8h-3.57s-.08.04-.08.08c0,.03.01.05.04.07.18.1.43.21.7.34.89.4,1.99.9,2.22,1.54.31.87.08,1.83-.13,2.76-.13.57-.27,1.17-.27,1.7.03.81.09,1.23.2,1.92.02.14.05.3.07.47.02.14-.02.28-.11.39-.09.11-.23.17-.37.17h-.03c-.5,0-.71.09-1.14.47-.09.08-.21.11-.33.08-.15-.03-.29-.14-.35-.28l-1.86-3.31c-.07-.14-.07-.31,0-.45.07-.14.21-.24.36-.26.1-.02.25-.03.44-.04.55-.04,1.84-.13,1.93-.56.04-.17,0-.31-.09-.45-.24-.34-.86-.59-1.76-.71l-.56-.06c-.87-.08-1.63-.65-1.94-1.47l-.09-.22s-.03-.04-.06-.04h0s0,0,0,0c-.02,0-.03,0-.04.03h0c-.49,1.04-.6,2.22-.31,3.32.29.95.9,1.94,1.49,2.91.63,1.04,1.23,2.02,1.35,2.83.08.57.23,1.14.44,1.68.15.25,1.77,1.28,2.16,1.38.01-.01.02-.03.03-.04.48-1.14,1.25-2.15,2.23-2.91h0c1.24-.86,1.95-1.07,2.28-1.11l.06-7.42h0ZM56.65,17.82c-.3,1.1-.88,2.11-1.68,2.92-.94.9-2.06,1.61-3.28,2.08l-.69-4.37c1.57-.92,3.37-1.36,5.19-1.26.27.01.48.24.47.51,0,.04,0,.08-.02.12ZM59.02,16.59c-1.64-.67-3.38-1.08-5.15-1.23-1.17-.05-2.34.23-3.36.81-.69.33-1.51.25-2.13-.2-1.19-.85-2.49-1.52-3.87-1.99-1.78-.72-3.63-1.26-5.51-1.61-.44-.08-.86.2-.95.64-.01.06-.02.11-.01.17l.3,6.87s.02.08.04.11c.03.04.07.06.12.06.05,0,.09-.01.13-.04.77-.67,1.7-1.04,2.71-1.04h3.53s0,0,.01,0c.56,0,1.05.37,1.2.92h0c.12.52-.12,1.06-.58,1.32-.25.13-.52.26-.82.39h0c-.59.22-1.12.54-1.61.93-.07.37-.01.93.03,1.29.53-.34,1.16-.42,1.76-.51.99-.14,1.84-.26,2.16-1.43.14-.5.67-.83,1.23-.77h0c.43.06.79.34.96.73.58,1.26.71,2.7.35,4.04v.02c-.43,1.11-.98,2.17-1.64,3.16-.53.74-.92,1.55-1.19,2.41-.09.65-.26,1.28-.49,1.89-.11.29-.31.54-.57.72h-.02c-.31.22-1.24.85-1.88,1.19-.4.21-.88.2-1.28-.02-.04-.02-.08-.05-.12-.07l.23,2.58.14,1.2c.03.24,0,.47-.05.68-.05.2-.13.38-.25.54-.27.39-.7.64-1.18.64h-2.72l.47,2.69c.36,2.08,2.16,3.61,4.28,3.61h9.69s-1.62-8.7-2.53-12.64c-.47-2.33-.41-4.74.19-7.04.55-2.53,1.93-2.48,4.5-4.45.24-.18.48-.38.74-.6,1.69-1.59,2.8-3.7,3.16-5.99h-.03s0,0,0,0ZM23.66,22.83c-1.22-.47-2.33-1.18-3.28-2.08-.79-.81-1.37-1.8-1.67-2.89-.08-.25.06-.53.32-.61.04-.01.08-.02.13-.02,1.82-.1,3.63.34,5.2,1.26l-.69,4.34h0ZM32.82,40.36c-.12-.16-.21-.35-.25-.54-.06-.21-.08-.44-.05-.68l.14-1.2.23-2.58s-.07.05-.12.07c-.4.22-.88.23-1.28.02-.65-.34-1.58-.97-1.88-1.18h-.01c-.26-.19-.46-.44-.57-.74-.23-.61-.4-1.25-.49-1.89-.26-.86-.66-1.67-1.19-2.41-.67-.99-1.22-2.05-1.64-3.16v-.02c-.36-1.34-.24-2.78.34-4.04.17-.39.54-.67.96-.73h0c.57-.06,1.1.27,1.23.77.32,1.17,1.18,1.29,2.16,1.43.61.08,1.23.17,1.76.51.05-.35.1-.92.03-1.29-.48-.4-1.02-.71-1.61-.93h0c-.3-.13-.58-.26-.82-.39-.47-.26-.71-.8-.59-1.32h0c.15-.55.65-.93,1.21-.92h3.52c1.02,0,1.95.37,2.71,1.04.04.03.08.05.13.04.05,0,.09-.02.12-.06.03-.03.04-.07.04-.12l.26-6.86c0-.45-.34-.81-.79-.82-.06,0-.12,0-.18.02-1.88.36-3.73.9-5.51,1.62-1.39.47-2.69,1.13-3.88,1.99-.61.46-1.42.55-2.12.23-1.02-.58-2.18-.86-3.35-.81-1.77.14-3.51.56-5.16,1.23.37,2.29,1.48,4.4,3.16,5.99.26.22.51.42.74.6,2.65,1.9,4.04,1.9,4.58,4.4.6,2.3.66,4.71.19,7.04-.9,3.94-2.53,12.64-2.53,12.64h9.65c2.11,0,3.91-1.54,4.26-3.62l.46-2.69h-2.74c-.49,0-.91-.25-1.18-.64h0ZM19.77,23.44c-.76-.98-1.49-1.24-1.9-1.17v.05h-.12c-.67.26-.46,2.89-.93,4.59-.16.56-.36,1.1-.61,1.62.01.06.01.11,0,.17-.48,2.03-1.32,3.96-2.47,5.7.46.3,1.61.81,3.93.69,1.95-.15,3.66-1.37,4.43-3.17-.04-1.22-.18-2.44-.42-3.63-.27-1.74-.93-3.39-1.91-4.84h0ZM27.4,7.37c-3.88,1.97-4.37,4.59-4.38,4.7,0,.01,0,.03,0,.04.42.86.74,1.76.94,2.7.46.15.9.35,1.32.6.37.21.98-.12,1.15-.23.17-.1.38-.23.55-.35,1.08-.72,2.25-1.29,3.47-1.7,1.56-.61,3.16-1.1,4.79-1.46.79-.17,1.29-.95,1.11-1.74-.03-.14-.08-.27-.15-.4-.48-.86-1.02-1.68-1.61-2.46-2.34-.86-4.93-.75-7.19.32ZM15.87,2.65h.03c-.6,1.13-1,2.34-1.2,3.6.88.21,1.75.48,2.6.81,2.06.75,3.84,2.12,5.07,3.93.95-2,2.59-3.59,4.61-4.49,2.04-1,4.36-1.27,6.58-.75C31.06,2.83,27.59.89,23.79.28,22.32.05,20.82-.04,19.33.01c-1.42.45-2.64,1.39-3.46,2.64h0ZM8.57,22.93c2.32.85,4.9.62,7.05-.61.21-.75.48-1.49.81-2.2-.53-1.07-.89-2.21-1.07-3.38-.06-.42.17-.83.56-1,1.75-.72,3.6-1.16,5.49-1.31.51-.02,1.02.02,1.53.11-.75-3.07-3-5.54-5.98-6.58l.02-.02c-9.98-3.81-13.78,3.13-13.95,3.46-.9,2.08-.99,4.42-.25,6.56.88,2.17,2.83,3.84,5.8,4.96h0ZM15.18,28.15c-.18-1.55-.13-3.11.15-4.64-1.23.57-2.57.86-3.92.87-1.08,0-2.16-.2-3.17-.58-3.23-1.23-5.38-3.08-6.35-5.51-.46-1.16-.66-2.41-.59-3.66C-.04,19.53-.35,24.66.4,29.68c2.48-.83,5.07-1.31,7.69-1.41,3.93-.15,6.13-.13,7.09-.11h0ZM9.59,37.01v.03c3.53-1.85,5.08-6.35,5.54-7.93-.96,0-3.16,0-7,.11-2.58.1-5.13.58-7.57,1.42.37,2.22,1.05,4.38,2.03,6.41.15.29.3.57.46.81,2.21.52,4.53.22,6.54-.85ZM17.71,36.09h-.68c-1.35.1-2.69-.22-3.86-.9-.85,1.1-1.91,2.01-3.13,2.67-1.49.79-3.15,1.22-4.84,1.23-.48,0-.96-.03-1.44-.11,3.3,4.84,7.85,5.59,13.14,3.56,3.74-1.43,4.98-5.2,5.19-8.75-1.04,1.38-2.65,2.22-4.38,2.29h0ZM13.77,6.06c.22-1.37.67-2.69,1.33-3.91.46-.73,1.04-1.37,1.73-1.89-5.34.85-10.05,3.96-12.92,8.55,1.76-1.68,4.93-3.58,9.85-2.75h0ZM60.2,29.15h.01s0-.03-.01-.04v.04ZM13.8,6.07s-.02,0-.03,0c0,0,0,0,0,0h.03ZM127.43,13.72c0,.79.08,1.51.24,2.17.16.66.38,1.22.67,1.7.29.48.63.85,1.04,1.12.4.27.84.4,1.32.4s.89-.11,1.28-.33c.38-.22.71-.53.98-.92.27-.39.48-.87.63-1.43.15-.56.22-1.18.22-1.86,0-.79-.09-1.51-.25-2.17-.17-.66-.41-1.23-.71-1.71-.3-.48-.66-.86-1.07-1.12-.41-.27-.87-.4-1.36-.4-.44,0-.84.11-1.2.33-.36.22-.68.53-.94.93-.26.4-.47.88-.61,1.44-.15.56-.22,1.18-.22,1.86ZM125.38,14.18c0-.74.14-1.43.41-2.08.27-.65.64-1.21,1.11-1.7.47-.49,1.01-.87,1.64-1.15.63-.28,1.3-.42,2.01-.42s1.41.13,2.04.4c.63.27,1.17.64,1.64,1.11.47.47.83,1.03,1.09,1.67.26.64.39,1.34.39,2.09s-.14,1.42-.41,2.07c-.27.65-.64,1.22-1.11,1.71-.47.49-1.01.87-1.64,1.15-.63.28-1.3.42-2.01.42s-1.41-.13-2.04-.4-1.17-.64-1.64-1.1c-.47-.47-.83-1.02-1.09-1.66-.26-.64-.39-1.34-.39-2.1h0ZM122.6,12.18c0-.41-.05-.79-.15-1.13-.1-.35-.24-.64-.42-.9-.18-.25-.41-.45-.68-.6-.27-.15-.57-.22-.91-.22-.4,0-.7.09-.89.27-.2.18-.29.44-.29.78v4.57h.6c1.83,0,2.74-.92,2.74-2.77h0ZM119.26,15.34v2.19c0,.3.02.56.07.77.05.21.12.38.23.51.1.13.23.23.39.3.16.07.34.11.55.13v.09h-4.11v-.09c.34-.02.6-.15.79-.39s.28-.57.28-.99v-7.4c0-.42-.09-.75-.28-.99-.18-.24-.45-.37-.79-.39v-.09h4.32c1.26,0,2.22.25,2.85.74s.96,1.25.96,2.28c0,.53-.11.99-.34,1.41-.23.41-.55.76-.96,1.05-.41.29-.9.51-1.47.66-.57.15-1.2.23-1.89.23h-.6ZM109.5,8.98v.09c-.34.02-.6.15-.79.39-.18.24-.28.57-.28.99v5.5c0,.99.23,1.75.69,2.27.46.52,1.12.78,1.98.78s1.52-.26,2.04-.79c.51-.53.77-1.32.77-2.39v-5.08c0-.41-.1-.77-.28-1.09-.19-.32-.45-.51-.8-.58v-.09h2.52v.09c-.34.07-.6.26-.79.58-.19.32-.28.68-.28,1.1v5.08c0,.56-.08,1.07-.23,1.52-.15.45-.37.83-.67,1.14-.3.31-.67.55-1.12.71-.45.17-.98.25-1.58.25-1.31,0-2.32-.32-3.01-.96-.7-.64-1.04-1.62-1.04-2.93v-5.09c0-.41-.1-.74-.28-.98-.19-.25-.45-.38-.8-.4v-.09h3.95,0ZM99.34,14.16h.73c.89,0,1.54-.2,1.97-.61.43-.41.64-1,.64-1.78,0-.36-.05-.69-.15-.99-.1-.3-.24-.56-.43-.77-.19-.21-.42-.38-.68-.5-.26-.12-.56-.17-.9-.17-.37,0-.66.08-.87.25-.21.17-.31.45-.31.86v3.72ZM104.65,18.07c.18.34.37.6.54.78.17.18.4.31.69.39v.09h-2.55c-.05-.07-.11-.16-.18-.28s-.15-.24-.23-.38c-.08-.14-.16-.28-.23-.42-.08-.15-.15-.28-.2-.39l-.89-1.9c-.12-.24-.24-.45-.36-.64-.13-.18-.27-.33-.44-.44s-.36-.2-.57-.26c-.21-.05-.47-.08-.77-.08h-.1v3.31c0,.44.08.77.23,1.01.15.23.44.36.87.38v.09h-3.97v-.09c.34-.02.6-.15.79-.38.18-.23.28-.57.28-1.01v-7.4c0-.42-.09-.75-.28-.99-.19-.24-.45-.37-.79-.39v-.09h4.17c1.29,0,2.27.22,2.92.65.65.43.98,1.11.98,2.02,0,.35-.07.67-.2.96s-.32.54-.56.77c-.24.22-.53.42-.86.58-.34.16-.7.29-1.1.39.25.02.51.11.77.27.26.16.48.43.68.79l1.4,2.67h0ZM91.49,8.84c.55,0,1.11.04,1.66.13.55.09,1.03.21,1.44.38l.34,3.12h-.01c-.22-.44-.46-.85-.71-1.25s-.53-.74-.85-1.03c-.32-.29-.69-.53-1.09-.7-.41-.18-.88-.26-1.43-.26-.45,0-.87.09-1.25.25-.39.17-.73.42-1.01.75s-.51.74-.68,1.23c-.17.49-.25,1.05-.25,1.69,0,.83.14,1.59.41,2.28.27.7.63,1.29,1.08,1.79.45.5.96.89,1.52,1.17.57.28,1.15.42,1.73.42.24,0,.47-.01.68-.04.21-.02.37-.06.47-.09v-3.14c0-.4-.1-.73-.28-.98-.19-.25-.46-.39-.82-.41v-.09h3.85v.09c-.36.02-.63.16-.82.41s-.28.58-.28.98v3.9h-.04c-.08-.22-.2-.39-.38-.5-.17-.11-.37-.16-.57-.16-.09,0-.17,0-.23.01-.07,0-.15.03-.25.07-.35.16-.75.29-1.2.4-.45.11-.98.17-1.6.17s-1.19-.1-1.75-.3c-.56-.2-1.07-.51-1.5-.93-.44-.42-.79-.94-1.05-1.58-.26-.63-.39-1.38-.39-2.25,0-.8.12-1.53.36-2.21.24-.68.6-1.26,1.06-1.76.46-.5,1.02-.88,1.67-1.17s1.39-.42,2.2-.42h0ZM189.41,24.27h3.81v.12c-.57.05-.98.27-1.25.66-.26.39-.4.86-.4,1.42v11.86h-.79l-8.71-11.98v9.78c0,.56.14,1.03.41,1.42.27.39.69.61,1.26.66v.12h-3.81v-.12c.57-.05.98-.27,1.25-.66.26-.39.4-.86.4-1.42v-9.99c0-.37-.15-.72-.46-1.05s-.7-.56-1.19-.69v-.12h3.63l7.52,10.37v-8.17c0-.56-.14-1.03-.41-1.42-.27-.39-.69-.61-1.26-.66,0,0,0-.12,0-.12ZM169.48,23.49l-.04-.04,3.17-3.95,2,1.94-.1.36-5.04,1.69h0ZM172.24,38.03c.64,0,1.21-.15,1.73-.45.52-.3.97-.71,1.34-1.25.37-.54.65-1.18.85-1.94.2-.76.3-1.6.3-2.53,0-1.07-.12-2.06-.35-2.95-.23-.9-.55-1.68-.96-2.33s-.9-1.16-1.46-1.53c-.56-.36-1.18-.54-1.85-.54-.59,0-1.14.15-1.64.45-.5.3-.92.72-1.28,1.27-.36.55-.63,1.2-.83,1.96-.2.76-.3,1.6-.3,2.53,0,1.07.11,2.05.33,2.94.22.89.52,1.66.91,2.31.39.65.86,1.15,1.41,1.52.55.36,1.15.54,1.79.54h0ZM172.04,38.49c-.99,0-1.91-.18-2.77-.55-.85-.36-1.6-.86-2.23-1.5-.64-.63-1.13-1.39-1.49-2.26-.36-.87-.54-1.82-.54-2.86s.19-1.95.56-2.83c.37-.88.87-1.65,1.51-2.31.64-.66,1.38-1.18,2.23-1.57.85-.38,1.76-.57,2.73-.57s1.91.18,2.77.54c.85.36,1.6.87,2.23,1.51s1.13,1.4,1.49,2.27c.36.87.54,1.82.54,2.84s-.19,1.93-.55,2.82c-.37.89-.87,1.66-1.51,2.32s-1.38,1.18-2.23,1.57c-.85.38-1.76.58-2.73.58ZM155.9,31.31h.99c1.2,0,2.1-.28,2.68-.83.58-.56.87-1.36.87-2.42,0-.49-.07-.94-.2-1.35-.13-.41-.33-.76-.58-1.05-.26-.29-.56-.52-.92-.67-.36-.16-.77-.24-1.23-.24-.5,0-.9.11-1.18.34-.28.22-.43.62-.43,1.17v5.06ZM163.12,36.62c.25.46.5.82.73,1.06.24.24.55.42.93.53v.12h-3.47c-.07-.09-.15-.22-.25-.38-.1-.16-.2-.33-.31-.52-.11-.19-.21-.38-.32-.58-.11-.2-.2-.38-.28-.54l-1.21-2.58c-.16-.33-.32-.62-.5-.86-.17-.24-.37-.45-.59-.6-.22-.16-.48-.27-.77-.35-.29-.07-.64-.11-1.05-.11h-.14v4.5c0,.59.1,1.05.31,1.37.2.32.6.49,1.18.52v.12h-5.39v-.12c.46-.03.82-.2,1.07-.52.25-.32.38-.77.38-1.37v-10.05c0-.57-.13-1.02-.38-1.35-.25-.33-.61-.51-1.07-.54v-.12h5.67c1.76,0,3.08.29,3.97.88.88.59,1.33,1.5,1.33,2.75,0,.48-.09.91-.28,1.3-.19.39-.44.74-.76,1.04-.32.3-.71.56-1.17.78-.46.22-.96.39-1.5.53.34.03.69.15,1.04.37.35.22.66.58.92,1.08l1.9,3.63h0ZM142.12,31.31h.99c1.2,0,2.1-.28,2.68-.83.58-.56.87-1.36.87-2.42,0-.49-.07-.94-.2-1.35-.13-.41-.33-.76-.59-1.05s-.57-.52-.92-.67c-.36-.16-.77-.24-1.23-.24-.5,0-.9.11-1.18.34-.28.22-.43.62-.43,1.17v5.06h0ZM149.34,36.62c.25.46.5.82.73,1.06.24.24.55.42.93.53v.12h-3.47c-.07-.09-.15-.22-.25-.38-.1-.16-.2-.33-.31-.52-.11-.19-.21-.38-.32-.58-.11-.2-.2-.38-.28-.54l-1.21-2.58c-.16-.33-.32-.62-.5-.86-.17-.24-.37-.45-.59-.6-.22-.16-.48-.27-.77-.35-.29-.07-.64-.11-1.05-.11h-.14v4.5c0,.59.1,1.05.31,1.37.2.32.6.49,1.18.52v.12h-5.39v-.12c.46-.03.82-.2,1.07-.52.25-.32.38-.77.38-1.37v-10.05c0-.57-.13-1.02-.38-1.35s-.61-.51-1.07-.54v-.12h5.67c1.76,0,3.08.29,3.97.88.89.59,1.33,1.5,1.33,2.75,0,.48-.09.91-.28,1.3-.19.39-.44.74-.76,1.04-.32.3-.71.56-1.17.78-.46.22-.96.39-1.5.53.34.03.69.15,1.04.37.35.22.66.58.92,1.08l1.9,3.63h0ZM126.91,33.49h5.04l-2.62-6.37-2.42,6.37h0ZM125.54,35.51l4.38-11.38h.56l5.16,12.2c.11.25.21.49.32.7.11.22.22.41.36.58.13.17.28.3.44.41.16.11.35.17.58.2v.12h-5.45v-.12c.46-.05.81-.17,1.03-.34.22-.17.34-.43.34-.77,0-.17-.02-.34-.07-.52-.05-.17-.11-.36-.19-.55l-.81-2h-5.47l-.64,1.69c-.16.41-.24.79-.24,1.15,0,.41.11.71.33.91.22.2.56.34,1.02.44v.12h-3.71v-.12c.46-.13.86-.46,1.2-.97.34-.52.63-1.09.88-1.73h0ZM121.02,36.32c.05.57.19,1.02.42,1.35.22.33.57.51,1.03.54v.12h-5.37v-.12c.46-.03.83-.21,1.11-.54.28-.34.4-.78.36-1.34l-.75-10.07-4.5,11.82h-.57l-4.68-11.52-.69,9.58c-.04.55.08,1.03.36,1.42.28.39.65.61,1.11.66v.12h-3.41v-.12c.46-.05.81-.27,1.04-.66.23-.39.37-.86.41-1.42l.69-9.46c.03-.4.02-.73-.03-.99-.05-.26-.13-.48-.25-.65-.12-.17-.26-.31-.44-.41-.17-.1-.37-.17-.59-.23v-.12h3.45l4.28,10.47,3.93-10.47h3.37v.12c-.13.07-.27.15-.41.24s-.26.22-.37.4-.19.39-.24.64c-.05.26-.07.58-.04.96l.79,9.7h0ZM99.06,24.39v-.12h5.37v.12c-.46.03-.82.21-1.07.55-.25.34-.38.78-.38,1.34v10.05c0,.56.13,1,.39,1.34.26.34.62.52,1.08.55v.12h-5.37v-.12c.46-.03.82-.21,1.07-.55.25-.34.38-.78.38-1.34v-10.05c0-.56-.13-1-.39-1.34-.26-.34-.62-.52-1.08-.55h0Z"/></g></svg>