<?xml version="1.0" encoding="UTF-8"?><svg id="b" xmlns="http://www.w3.org/2000/svg" viewBox="0 0 99.36 92.59"><g id="c"><path d="M56.96,36.15l-13.95.08c-2.25-1.01-4.49-2.47-5.47-4.84-.29-.71-.67-1.78-.87-2.52-.46-1.74-5.56-23.52-5.54-23.76.02-.31.34-.02.48.12.53.54,25.46,30.5,25.33,30.92Z"/><path d="M67.58,6.77c.1.28-5.17,17.82-5.37,18.52-1.53,5.46-1.24,6.86-4.26,9.05-.22.16-.86.56-1.09.49s-5.57-6.64-6.13-7.34c-.07-.4,16.07-20.27,16.42-20.58.14-.13.21-.18.43-.15Z"/><path d="M56.94,17.26c.41.51.48.62.06,1.2-.12.16-.31.28-.42.43-1.81,2.47-3.83,4.8-5.77,7.16-.26.31-.38.91-.81.66-.12-.07-.88-.94-1.03-1.12-1.93-2.25-3.87-4.58-5.69-6.93-.24-.31-.8-.69-.57-1.11l7.46-7.39c.13,0,.2.02.31.08.17.1.77.77.96.96.76.8,1.44,1.69,2.19,2.5,1.11,1.21,2.27,2.27,3.32,3.57Z"/><path d="M46.48,12.74l-1.43-2S49.39,0,49.97,0c.61,0,5.15,11.52,5.14,11.65,0,.08-.8,1.14-.87,1.2-.1.09-.16.11-.29.07l-3.67-3.8c-.08-.06-.14-.04-.23,0-.06.03-2.74,2.69-3.57,3.62Z"/><path d="M43.97,10.53c.66.82,1.26,1.7,1.91,2.53.05.16.02.24-.06.37-.19.32-3.35,3.55-3.67,3.64s-.55-.46-.75-.68c-.51-.57-1.47-2.6-1.52-2.79-.3-1.33-2.84-10.69-2.56-10.9l.23.07c.4.51,4.72,5.65,6.42,7.76Z"/><path d="M57.89,17.2l-3.22-3.68c.31-.37.54-.8.84-1.17,1.88-2.36,7.32-8.45,7.42-8.43.19.04.06.52.02.63-.41,1.29-.9,2.59-1.27,3.88-.55,1.92-1.05,3.89-1.66,5.81-.34,1.07-1.93,3.06-2.13,2.95Z"/><path d="M49.11,51.38l-5.94,4.64c-.41-.04-3.53-5.22-3.51-5.51.02-.41,4.17-3.43,4.43-3.57.13,0,5.32,3.92,5.02,4.44Z"/><path d="M48.92,41.59s-4.01,3.87-4.76,4.42c-.35-.32-4.58-3.47-4.58-3.97,0-.33,2.42-4.03,3.2-4.81.52-.52.65-.03,1.05.26,1.76,1.28,3.38,2.75,5.1,4.09Z"/><path d="M50.84,42.22c-.12-.15-.12-.35,0-.5l6.09-4.64c.24.02,2.49,3.57,3.06,4.8.38.82-4.19,4.16-4.43,4.14-1.66-1.15-3.18-2.5-4.71-3.8Z"/><path d="M49.78,50.63c-.32-.03-3.14-2.58-4.23-3.47-.73-.6-1.22-.53-.15-1.38,1.21-.96,4.35-3.32,4.53-3.32.31.03,4.97,3.89,4.95,4.11,0,0-4.65,4.11-5.1,4.06Z"/><path d="M55.93,55.78c-.24-.03-5.44-4.4-5.42-4.66.22-.36,4.88-4.08,5.18-4.04l4.01,3.16c.21.41-3.28,5.59-3.77,5.54Z"/><path d="M49.93,51.7c.27,0,5.22,4.14,5.2,4.43s-5.48,2.13-5.73,2.12c-.24-.01-5.23-1.66-5.11-2.1.01-.06,5.3-4.45,5.64-4.45Z"/><path d="M55.65,36.86c.26.41-5.29,4.82-5.97,4.47-.78-.41-5.08-4.04-5.26-4.29-.16-.22.49-.19.65-.19,2.93-.03,5.84-.02,8.77-.08.26,0,1.72-.04,1.8.09Z"/><path d="M41.79,47.83c-.32.26-.68.47-1.01.72-.26.2-1.31,1.37-1.62.93l-.04-5.97.29-.49,4.02,3.35c-.22.5-.78.7-1.14.99-.17.14-.35.34-.5.46Z"/><path d="M60.28,43.39s-.12,6.24-.49,6.14l-3.52-2.79c-.32-.4,3.63-3.28,3.7-3.31.1-.05.2-.05.31-.04Z"/><path d="M2.82,78.39c-.89-.53-1.59-1.26-2.08-2.2s-.74-2-.74-3.19c0-1.26.24-2.37.73-3.34.49-.96,1.17-1.71,2.04-2.24.87-.53,1.87-.79,2.98-.79,1.53,0,2.72.51,3.57,1.54l.12-1.25h1.61v4.66h-1.66c-.2-1.02-.56-1.82-1.08-2.4s-1.17-.87-1.93-.87c-.99,0-1.75.41-2.28,1.23-.53.82-.79,1.93-.79,3.34s.27,2.52.82,3.34c.55.81,1.31,1.22,2.29,1.22.86,0,1.54-.28,2.06-.85.51-.56.86-1.36,1.03-2.4h1.68c-.13,1.47-.63,2.67-1.51,3.6-.88.93-2.14,1.39-3.79,1.39-1.14,0-2.16-.26-3.05-.79Z"/><path d="M14.84,77.98c-.82-.81-1.24-1.93-1.24-3.38v-5.81c0-.13-.04-.24-.12-.32s-.18-.12-.31-.12h-1.08v-1.43h6.18v1.43h-1.2c-.14,0-.25.04-.32.12-.07.08-.11.19-.11.33v5.49c0,1.06.19,1.83.58,2.31.39.48,1.02.72,1.89.72s1.5-.23,1.88-.68c.38-.45.57-1.21.57-2.27v-5.58c0-.13-.04-.24-.12-.32s-.18-.12-.31-.12h-1.18v-1.43h5.03v1.43h-1.08c-.14,0-.25.04-.32.12s-.11.19-.11.33v5.68c0,1.46-.4,2.61-1.19,3.45-.79.84-2.03,1.26-3.7,1.26s-2.95-.4-3.78-1.21Z"/><path d="M40.14,68.47c-.08.08-.11.19-.11.32v8.24c0,.13.04.24.11.32.08.08.18.12.31.12h1.01v1.43h-5.89v-1.43h1.02c.14,0,.25-.04.33-.12.08-.08.11-.19.11-.32v-8.56l-3.09,10.43h-2.01l-3-10.29v8.42c0,.13.04.24.11.32.08.08.18.12.31.12h1.01v1.43h-4.75v-1.43h1.01c.13,0,.23-.04.31-.12.08-.08.12-.19.12-.32v-8.24c0-.13-.04-.24-.12-.32-.08-.08-.18-.12-.31-.12h-1.01v-1.43h5.74l2.17,7.75,2.21-7.75h5.74v1.43h-1.01c-.13,0-.23.04-.31.12Z"/><path d="M42.39,77.47h1.01c.13,0,.23-.04.31-.12.08-.08.12-.19.12-.32v-8.24c0-.13-.04-.24-.12-.32-.08-.08-.18-.12-.31-.12h-1.01v-1.43h6.5c1.75,0,2.99.27,3.71.79s1.08,1.25,1.08,2.17c0,.68-.24,1.26-.71,1.75-.47.48-1.14.82-2,1.02,1.07.15,1.9.48,2.48.98.58.5.87,1.18.87,2.04,0,1.01-.4,1.8-1.21,2.37-.81.57-2,.86-3.59.86h-7.13v-1.43ZM48.46,72.07c1.4,0,2.1-.62,2.1-1.85,0-.61-.17-1.06-.51-1.35-.34-.29-.88-.43-1.61-.43h-1.59v3.64h1.61ZM48.92,77.39c.79,0,1.36-.15,1.7-.46.35-.31.52-.78.52-1.43,0-.71-.2-1.21-.6-1.5-.4-.29-.98-.44-1.73-.44h-1.96v3.83h2.07Z"/><path d="M63.53,78.57c-.52-.41-.79-1.01-.79-1.78v-1.29c0-.53-.14-.91-.42-1.14s-.67-.34-1.17-.34h-1.34v3.02c0,.13.04.24.12.32.08.08.18.12.31.12h1.01v1.43h-5.89v-1.43h1.01c.13,0,.23-.04.31-.12.08-.08.12-.19.12-.32v-8.24c0-.13-.04-.24-.12-.32-.08-.08-.18-.12-.31-.12h-1.01v-1.43h6.64c1.78,0,3.05.27,3.81.82s1.15,1.34,1.15,2.39c0,.88-.29,1.58-.88,2.11-.59.52-1.41.89-2.45,1.09.81.15,1.39.41,1.75.77.35.36.53.86.53,1.49v1.2c0,.25.03.42.1.5.06.09.19.13.38.13s.31-.04.37-.13c.06-.09.09-.26.09-.5v-1.36h1.32v1.59c0,.62-.26,1.14-.77,1.55-.51.41-1.15.62-1.92.62s-1.41-.21-1.93-.62ZM61.19,72.44c.91,0,1.56-.16,1.97-.47.41-.31.61-.81.61-1.51s-.18-1.22-.55-1.54c-.37-.32-.95-.49-1.75-.49h-1.66v4.01h1.38Z"/><path d="M68.78,77.47h1.01c.13,0,.23-.04.31-.12.08-.08.12-.19.12-.32v-8.24c0-.13-.04-.24-.12-.32-.08-.08-.18-.12-.31-.12h-1.01v-1.43h5.91v1.43h-1.02c-.13,0-.23.04-.31.12-.08.08-.12.19-.12.32v8.24c0,.13.04.24.12.32.08.08.18.12.31.12h1.02v1.43h-5.91v-1.43Z"/><path d="M77.8,77.47h1.45c.14,0,.25-.04.33-.12.08-.08.12-.19.12-.32v-8.63h-.48c-.59,0-1.01.13-1.25.4s-.43.71-.55,1.33l-.32,1.73h-1.68l.41-4.94h10.78l.39,4.94h-1.69l-.3-1.73c-.12-.62-.3-1.07-.55-1.33s-.66-.4-1.25-.4h-.46v8.63c0,.14.04.25.11.33.07.08.18.11.32.11h1.46v1.43h-6.83v-1.43Z"/><path d="M99.36,77.47v1.43h-6.14v-1.43h1.15c.09,0,.17-.03.22-.08.05-.05.08-.12.08-.2,0-.04-.01-.09-.04-.16l-.44-1.25h-4.55l-.44,1.25c-.02.07-.04.12-.04.16,0,.08.03.15.08.2.05.05.13.08.24.08h1.15v1.43h-4.82v-1.43h.85c.18,0,.31-.04.41-.11.09-.07.17-.19.23-.37l3.85-10.15h2.91l3.85,10.15c.06.18.13.3.23.37.09.07.23.11.41.11h.83ZM93.68,74.3l-1.73-4.96-1.78,4.96h3.51Z"/><path d="M3.92,91.38h.71c.09,0,.17-.03.22-.09.05-.06.08-.13.08-.22v-5.83c0-.09-.03-.17-.08-.22-.05-.06-.13-.09-.22-.09h-.71v-1.01h4.13c1.53,0,2.69.37,3.48,1.1.79.74,1.18,1.78,1.18,3.14s-.38,2.39-1.14,3.13-1.87,1.11-3.32,1.11H3.92v-1.01ZM7.95,91.32c.64,0,1.14-.1,1.49-.29.35-.19.6-.51.74-.95.15-.44.22-1.06.22-1.86s-.08-1.46-.24-1.92-.42-.8-.79-1.01c-.37-.21-.88-.31-1.53-.31h-.76v6.33h.88Z"/><path d="M13.34,91.38h.7c.1,0,.18-.03.23-.09.05-.06.08-.13.08-.22v-5.83c0-.09-.03-.17-.08-.22-.05-.06-.13-.09-.23-.09h-.7v-1.01h7.63l.26,3.36h-1.21l-.19-1.14c-.08-.44-.23-.74-.46-.9s-.59-.24-1.07-.24h-1.8v2.61h.72c.17,0,.3-.04.38-.12s.12-.2.12-.37v-.91h1.1v3.85h-1.1v-.91c0-.17-.04-.29-.12-.36-.08-.08-.21-.11-.38-.11h-.72v2.63h1.8c.48,0,.84-.08,1.07-.24s.39-.46.46-.89l.19-1.14h1.21l-.26,3.36h-7.63v-1.01Z"/><path d="M24.77,91.38h.71c.09,0,.17-.03.22-.09.05-.06.08-.13.08-.22v-5.83c0-.09-.03-.17-.08-.22-.05-.06-.13-.09-.22-.09h-.71v-1.01h4.31v1.01h-.85c-.09,0-.16.03-.22.09-.05.06-.08.13-.08.22v6.07h1.6c.44,0,.78-.09,1.01-.26.23-.17.37-.47.43-.88l.22-1.42h1.21l-.3,3.65h-7.33v-1.01Z"/><path d="M42.08,91.38v1.01h-4.35v-1.01h.81c.07,0,.12-.02.16-.06s.06-.08.06-.14c0-.02,0-.06-.02-.11l-.31-.89h-3.22l-.31.89s-.02.09-.02.11c0,.06.02.11.06.14s.09.06.17.06h.81v1.01h-3.41v-1.01h.6c.12,0,.22-.03.29-.08.07-.05.12-.14.16-.26l2.72-7.18h2.06l2.72,7.18c.04.12.1.21.16.26s.16.08.29.08h.59ZM38.06,89.13l-1.22-3.51-1.26,3.51h2.49Z"/><path d="M47.19,92.24c-.45-.24-.79-.5-.99-.79l-.1.95h-1.14v-3.12h1.17c.16.72.46,1.26.92,1.62.45.36.98.54,1.58.54.54,0,.94-.1,1.2-.31s.39-.46.39-.77c0-.25-.1-.47-.31-.65-.2-.18-.55-.33-1.04-.45l-1.52-.36c-.67-.16-1.22-.45-1.67-.87-.45-.42-.67-.99-.67-1.72,0-.8.27-1.43.81-1.9.54-.47,1.26-.7,2.16-.7.63,0,1.15.11,1.55.32.4.22.69.45.88.71l.07-.84h1.15v2.88h-1.17c-.21-.65-.49-1.13-.83-1.44-.35-.31-.79-.46-1.32-.46-.94,0-1.41.33-1.41,1,0,.25.1.47.3.65.2.18.54.33,1.02.44l1.52.36c1.58.36,2.37,1.21,2.37,2.55,0,.52-.14.98-.42,1.39-.28.41-.67.73-1.16.96-.5.23-1.06.34-1.68.34-.66,0-1.21-.12-1.67-.36Z"/><path d="M53.03,91.38h.71c.09,0,.17-.03.22-.09.05-.06.08-.13.08-.22v-5.83c0-.09-.03-.17-.08-.22-.05-.06-.13-.09-.22-.09h-.71v-1.01h4.18v1.01h-.72c-.09,0-.16.03-.22.09-.05.06-.08.13-.08.22v5.83c0,.09.03.17.08.22.05.06.13.09.22.09h.72v1.01h-4.18v-1.01Z"/><path d="M57.88,91.38h.7c.1,0,.18-.03.23-.09.05-.06.08-.13.08-.22v-5.83c0-.09-.03-.17-.08-.22-.05-.06-.13-.09-.23-.09h-.7v-1.01h7.63l.26,3.36h-1.21l-.19-1.14c-.08-.44-.23-.74-.46-.9s-.59-.24-1.07-.24h-1.8v2.61h.72c.17,0,.3-.04.38-.12s.12-.2.12-.37v-.91h1.1v3.85h-1.1v-.91c0-.17-.04-.29-.12-.36-.08-.08-.21-.11-.38-.11h-.72v2.63h1.8c.48,0,.84-.08,1.07-.24s.39-.46.46-.89l.19-1.14h1.21l-.26,3.36h-7.63v-1.01Z"/><path d="M72.65,92.16c-.37-.29-.56-.71-.56-1.26v-.91c0-.38-.1-.64-.29-.81-.2-.16-.47-.24-.83-.24h-.95v2.14c0,.09.03.17.08.22.05.06.13.09.22.09h.71v1.01h-4.17v-1.01h.71c.09,0,.17-.03.22-.09.05-.06.08-.13.08-.22v-5.83c0-.09-.03-.17-.08-.22-.05-.06-.13-.09-.22-.09h-.71v-1.01h4.7c1.26,0,2.16.19,2.7.58.54.39.81.95.81,1.69,0,.62-.21,1.12-.62,1.49-.42.37-1,.63-1.74.77.57.11.99.29,1.24.54.25.25.38.61.38,1.05v.85c0,.17.02.29.07.36s.14.09.27.09.22-.03.26-.09.06-.18.06-.36v-.96h.94v1.12c0,.44-.18.81-.54,1.1s-.81.44-1.36.44-1-.15-1.37-.44ZM70.99,87.82c.64,0,1.11-.11,1.39-.33s.43-.58.43-1.07-.13-.86-.39-1.09c-.26-.23-.67-.34-1.24-.34h-1.17v2.84h.97Z"/><path d="M82.15,92.16c-.37-.29-.56-.71-.56-1.26v-.91c0-.38-.1-.64-.29-.81-.2-.16-.47-.24-.83-.24h-.95v2.14c0,.09.03.17.08.22.05.06.13.09.22.09h.71v1.01h-4.17v-1.01h.71c.09,0,.17-.03.22-.09.05-.06.08-.13.08-.22v-5.83c0-.09-.03-.17-.08-.22-.05-.06-.13-.09-.22-.09h-.71v-1.01h4.7c1.26,0,2.16.19,2.7.58.54.39.81.95.81,1.69,0,.62-.21,1.12-.62,1.49-.42.37-1,.63-1.74.77.57.11.99.29,1.24.54.25.25.38.61.38,1.05v.85c0,.17.02.29.07.36s.14.09.27.09.22-.03.26-.09.06-.18.06-.36v-.96h.94v1.12c0,.44-.18.81-.54,1.1s-.81.44-1.36.44-1-.15-1.37-.44ZM80.5,87.82c.64,0,1.11-.11,1.39-.33s.43-.58.43-1.07-.13-.86-.39-1.09c-.26-.23-.67-.34-1.24-.34h-1.17v2.84h.97Z"/><path d="M95.15,91.38v1.01h-4.35v-1.01h.81c.07,0,.12-.02.16-.06s.06-.08.06-.14c0-.02,0-.06-.02-.11l-.31-.89h-3.22l-.31.89s-.02.09-.02.11c0,.06.02.11.06.14s.09.06.17.06h.81v1.01h-3.41v-1.01h.6c.12,0,.22-.03.29-.08.07-.05.12-.14.16-.26l2.72-7.18h2.06l2.72,7.18c.04.12.1.21.16.26s.16.08.29.08h.59ZM91.13,89.13l-1.22-3.51-1.26,3.51h2.49Z"/></g></svg>