<?xml version="1.0" encoding="UTF-8"?><svg id="d" xmlns="http://www.w3.org/2000/svg" viewBox="0 0 200 78.55"><path d="M24.15,62.35c0,10.21-5.36,16.2-15.48,16.2-6.04,0-8.67-2.15-8.67-5.62,0-3.65,2.92-5.24,6.82-5.24s5.84-1.78,5.84-6.37V21.7c0-3.84,2.53-6.18,5.75-6.18s5.74,2.34,5.74,6.18v40.65ZM12.81,6.46C12.81,2.9,15.83,0,19.53,0s6.72,2.9,6.72,6.46-3.02,6.46-6.72,6.46-6.72-2.9-6.72-6.46Z"/><path d="M48.59,60.05c-11.59,0-16.85-8.01-16.85-19.85v-19.21c0-3.73,2.53-6.01,5.75-6.01s5.74,2.28,5.74,6.01v18.94c0,7.28,3.41,9.74,7.5,9.74,5.06,0,9.25-3.73,9.25-10.65v-18.03c0-3.73,2.53-6.01,5.74-6.01s5.75,2.28,5.75,6.01v32.78c0,3.73-2.53,6.01-5.75,6.01-2.82,0-4.97-1.73-5.55-4.37-2.24,3-6.43,4.64-11.59,4.64Z"/><path d="M124.44,25.64l2.04-5.64c.97-2.64,2.53-5.01,5.94-5.01,2.82,0,5.65,1.73,5.65,5.01,0,1.64-.68,3.46-1.27,4.92l-11.49,30.41c-.97,2.64-2.92,4.46-5.65,4.46-3.02,0-4.87-1.64-5.84-4.46l-1.95-5.46c-1.66-4.73-3.31-9.74-5.26-16.3-1.95,6.56-3.6,11.56-5.26,16.3l-1.95,5.46c-.97,2.82-2.82,4.46-5.84,4.46-2.73,0-4.67-1.82-5.65-4.46l-11.49-30.41c-.58-1.46-1.27-3.28-1.27-4.92,0-3.28,2.82-5.01,5.65-5.01,3.41,0,4.97,2.37,5.94,5.01l2.04,5.64c1.56,4.19,3.41,10.01,4.77,15.3,1.95-5.92,3.6-11.29,5.26-15.75l2.14-5.74c1.07-2.82,2.73-4.46,5.65-4.46s4.58,1.64,5.65,4.46l2.14,5.74c1.66,4.46,3.31,9.83,5.26,15.75,1.36-5.28,3.21-11.11,4.77-15.3Z"/><path d="M140.52,6.44c0-3.46,3.02-6.28,6.72-6.28s6.72,2.82,6.72,6.28-3.02,6.28-6.72,6.28-6.72-2.82-6.72-6.28ZM141.77,53.77V20.99c0-3.73,2.53-6.01,5.75-6.01s5.74,2.28,5.74,6.01v32.78c0,3.73-2.53,6.01-5.74,6.01s-5.75-2.28-5.75-6.01Z"/><path d="M180.23,50.04c6.33,0,7.11-3.73,11.3-3.73,3.12,0,5.06,2.09,5.06,4.73,0,1.64-.78,3.28-2.34,4.73-3.02,2.64-8.47,4.28-14.02,4.28-13.92,0-21.71-10.38-21.71-22.76s7.6-22.58,20.84-22.58,20.64,11.29,20.64,21.3c0,3.46-2.24,5.55-5.94,5.55h-23.66c.78,4.92,3.7,8.47,9.83,8.47ZM188.12,32.83c-.88-4.83-3.8-8.47-8.76-8.47s-7.89,3.64-8.76,8.47h17.53Z"/><path d="M39.15,73.68c.52,0,.84.31.84.7s-.32.7-.84.7h-4.01c-.47,0-.78-.29-.78-.73v-6.4c0-.44.31-.73.78-.73h3.93c.52,0,.84.31.84.7s-.32.7-.84.7h-3.15v1.72h1.81c.51,0,.83.31.83.69s-.32.69-.83.69h-1.81v1.93h3.23Z"/><path d="M46.52,73.68c.52,0,.84.31.84.7s-.32.7-.84.7h-3.78c-.47,0-.78-.29-.78-.73v-6.43c0-.5.34-.81.78-.81s.78.31.78.81v5.74h3Z"/><path d="M56.31,72.1c-.51,0-.83-.31-.83-.69s.32-.69.83-.69h2.08c.47,0,.78.29.78.73v.69c0,1.6-1.1,3.09-3.36,3.09-2.53,0-3.91-1.86-3.91-4.07s1.42-4.07,3.88-4.07c1.16,0,2.07.42,2.53.92.19.2.31.42.31.66,0,.36-.28.67-.7.67-.36,0-.57-.22-.92-.45-.23-.16-.6-.38-1.24-.38-1.43,0-2.29,1.17-2.29,2.66s.84,2.66,2.3,2.66c1.16,0,1.84-.73,1.84-1.46v-.26h-1.3Z"/><path d="M62.99,74.39c0,.5-.34.81-.78.81s-.78-.31-.78-.81v-6.43c0-.44.31-.73.78-.73h2.27c1.8,0,2.98.98,2.98,2.51,0,.99-.5,1.76-1.48,2.15l1.29,1.96c.13.2.27.42.27.68,0,.42-.33.67-.74.67s-.64-.25-.86-.59l-1.51-2.36h-1.44v2.14ZM64.47,70.86c.88,0,1.41-.39,1.41-1.11s-.52-1.11-1.41-1.11h-1.48v2.22h1.48Z"/><path d="M70.85,73.55l-.41.99c-.18.42-.41.66-.8.66-.43,0-.75-.27-.75-.69,0-.25.11-.53.2-.74l2.53-6.02c.18-.42.42-.62.79-.62s.61.2.79.62l2.53,6.02c.09.21.2.49.2.74,0,.42-.32.69-.75.69-.4,0-.63-.24-.8-.66l-.41-.99h-3.12ZM72.41,69.6c-.31.87-.66,1.77-.98,2.57h1.97c-.32-.8-.68-1.7-.98-2.57Z"/><path d="M82.94,70.66v-2.72c0-.5.34-.81.78-.81s.78.31.78.81v6.5c0,.47-.26.76-.74.76-.46,0-.72-.29-1.01-.67l-2.43-3.19c-.34-.45-.68-.9-1.05-1.45.04.69.06,1.25.06,1.77v2.72c0,.5-.34.81-.78.81s-.78-.31-.78-.81v-6.5c0-.47.26-.76.74-.76.46,0,.72.29,1.01.67l2.43,3.19c.34.45.68.9,1.05,1.45-.04-.69-.06-1.25-.06-1.77Z"/><path d="M89.98,74.39c-.19-.2-.31-.44-.31-.68,0-.37.29-.67.73-.67.29,0,.5.14.69.3.27.21.72.54,1.62.54.84,0,1.28-.27,1.28-.86,0-.76-.74-.94-1.71-1.18-1.15-.29-2.44-.86-2.44-2.45,0-1.41.96-2.29,2.84-2.29.93,0,1.7.22,2.15.55.28.21.42.47.42.73,0,.36-.28.66-.69.66-.32,0-.6-.18-.8-.29-.34-.18-.73-.29-1.19-.29-.77,0-1.14.31-1.14.87,0,.72.59.93,1.63,1.21,1.18.31,2.52.79,2.52,2.41,0,1.35-.96,2.29-2.9,2.29-1.15,0-2.21-.33-2.7-.85Z"/><path d="M98.96,73.55l-.41.99c-.18.42-.41.66-.8.66-.43,0-.75-.27-.75-.69,0-.25.11-.53.2-.74l2.53-6.02c.18-.42.42-.62.79-.62s.61.2.79.62l2.53,6.02c.09.21.2.49.2.74,0,.42-.32.69-.75.69-.4,0-.63-.24-.8-.66l-.41-.99h-3.12ZM100.51,69.6c-.31.87-.66,1.77-.98,2.57h1.97c-.32-.8-.68-1.7-.98-2.57Z"/><path d="M111.95,72.92c0,1.34-.96,2.17-3.09,2.17h-2.2c-.47,0-.78-.29-.78-.73v-6.4c0-.44.31-.73.78-.73h1.97c1.93,0,2.96.86,2.96,2.16,0,.87-.47,1.37-1.18,1.61.84.2,1.53.78,1.53,1.91ZM108.7,70.36c.8,0,1.28-.29,1.28-.86s-.47-.86-1.28-.86h-1.26v1.72h1.26ZM108.87,73.68c.89,0,1.44-.29,1.44-.97s-.55-.97-1.44-.97h-1.43v1.93h1.43Z"/><path d="M113.6,71.16c0-2.21,1.43-4.07,3.84-4.07s3.84,1.86,3.84,4.07-1.43,4.07-3.84,4.07-3.84-1.86-3.84-4.07ZM119.71,71.16c0-1.49-.86-2.66-2.27-2.66s-2.27,1.17-2.27,2.66.86,2.66,2.27,2.66,2.27-1.17,2.27-2.66Z"/><path d="M124.98,74.39c0,.5-.34.81-.78.81s-.78-.31-.78-.81v-6.43c0-.44.31-.73.78-.73h2.27c1.8,0,2.98.98,2.98,2.51,0,.99-.5,1.76-1.48,2.15l1.29,1.96c.13.2.27.42.27.68,0,.42-.33.67-.74.67s-.64-.25-.86-.59l-1.51-2.36h-1.44v2.14ZM126.46,70.86c.88,0,1.41-.39,1.41-1.11s-.52-1.11-1.41-1.11h-1.48v2.22h1.48Z"/><path d="M140.73,67.79c.23-.39.43-.67.87-.67s.73.29.73.74v6.52c0,.5-.34.81-.78.81s-.78-.31-.78-.81v-1.91c0-.61.04-1.21.08-1.98-.33.63-.61,1.13-.91,1.65l-.64,1.12c-.19.33-.46.55-.82.55s-.63-.21-.82-.55l-.64-1.12c-.29-.51-.57-1.02-.91-1.65.04.78.08,1.37.08,1.98v1.91c0,.5-.34.81-.78.81s-.78-.31-.78-.81v-6.52c0-.45.31-.74.73-.74s.64.27.87.67l2.25,3.95,2.25-3.95Z"/><path d="M149.63,73.68c.52,0,.84.31.84.7s-.32.7-.84.7h-4.01c-.47,0-.78-.29-.78-.73v-6.4c0-.44.31-.73.78-.73h3.93c.52,0,.84.31.84.7s-.32.7-.84.7h-3.15v1.72h1.81c.51,0,.83.31.83.69s-.32.69-.83.69h-1.81v1.93h3.23Z"/><path d="M157.6,70.66v-2.72c0-.5.34-.81.78-.81s.78.31.78.81v6.5c0,.47-.26.76-.74.76-.46,0-.72-.29-1.01-.67l-2.43-3.19c-.34-.45-.68-.9-1.05-1.45.04.69.06,1.25.06,1.77v2.72c0,.5-.34.81-.78.81s-.78-.31-.78-.81v-6.5c0-.47.26-.76.74-.76.46,0,.72.29,1.01.67l2.43,3.19c.34.45.68.9,1.05,1.45-.04-.69-.06-1.25-.06-1.77Z"/><path d="M161.29,71.16c0-2.21,1.43-4.07,3.84-4.07s3.84,1.86,3.84,4.07-1.43,4.07-3.84,4.07-3.84-1.86-3.84-4.07ZM167.41,71.16c0-1.49-.86-2.66-2.27-2.66s-2.27,1.17-2.27,2.66.86,2.66,2.27,2.66,2.27-1.17,2.27-2.66Z"/><path d="M176.28,70.66v-2.72c0-.5.34-.81.78-.81s.78.31.78.81v6.5c0,.47-.26.76-.74.76-.46,0-.72-.29-1.01-.67l-2.43-3.19c-.34-.45-.68-.9-1.05-1.45.04.69.06,1.25.06,1.77v2.72c0,.5-.34.81-.78.81s-.78-.31-.78-.81v-6.5c0-.47.26-.76.74-.76.46,0,.72.29,1.01.67l2.43,3.19c.34.45.68.9,1.05,1.45-.04-.69-.06-1.25-.06-1.77Z"/><path d="M180.43,74.39v-6.45c0-.5.34-.81.78-.81s.78.31.78.81v6.45c0,.5-.34.81-.78.81s-.78-.31-.78-.81Z"/><path d="M187.95,74.39c0,.5-.34.81-.78.81s-.78-.31-.78-.81v-5.74h-1.65c-.52,0-.84-.31-.84-.7s.32-.7.84-.7h4.85c.52,0,.84.31.84.7s-.32.7-.84.7h-1.65v5.74Z"/><path d="M192.55,73.55l-.41.99c-.18.42-.41.66-.8.66-.43,0-.75-.27-.75-.69,0-.25.11-.53.2-.74l2.53-6.02c.18-.42.42-.62.79-.62s.61.2.79.62l2.53,6.02c.09.21.2.49.2.74,0,.42-.32.69-.75.69-.4,0-.63-.24-.8-.66l-.41-.99h-3.12ZM194.11,69.6c-.31.87-.66,1.77-.98,2.57h1.97c-.32-.8-.68-1.7-.98-2.57Z"/></svg>