<?xml version="1.0" encoding="UTF-8"?><svg id="g" xmlns="http://www.w3.org/2000/svg" viewBox="0 0 91.03 100"><path d="M45.93,44.4c.8,1.2-2.28,1.45-2.93,1.46l1.76,1.32c-.12,1.25-1.58.4-2.36,0-2.96-1.47-1.98-2.23.89-2.22.65-.52-2.35-1.2-1.47-2.06.27-.26,3.98,1.3,4.1,1.48Z"/><path d="M79.18,43.5c.33-.63,2.36-1.37,2.34-.44,0,.25-3.45,2.88-3.82,2.5-.22-1.17.36-2.14.58-3.23-.11-.14-2.13,1.88-2.35.15l3.37-2.21c1.2.63-.49,2.77-.14,3.24Z"/><path d="M81.23,61.15c.19.71,1.52.37,1.91.87,1.32,1.68-4.22.15-4.26-.43-.07-1,2.41-1.11,2.64-1.33.75-.69-1.65-.72-1.76-.88-.15-.23.06-1.08.43-1.13.15-.02,2.71.69,2.97.82,2.07,1-.75,1.98-1.93,2.08Z"/><path d="M62.36,63.86c.12.08.14.53.33.66s1.03-.27,1.19.31c.2.75-.69,1.1-1.01,1.63-.2.32-.13.88-.32,1.15-.49.72-.97-.02-1.47-.13-.26-.06-.7.24-1.03.02-1.22-.8.98-4.48,2.31-3.64Z"/><path d="M77.7,39.09c-.51.51-1.72-1.22-2.06-.88l.88,2.06-2.06-.88c-.4.38,2.13,2.06.73,2.35-.34.07-2.14-1.72-2.18-1.95-.05-.32,2.27-2.97,2.52-3.02.51-.09,2.72,1.75,2.16,2.32Z"/><path d="M81.77,64.72c.4.69-.83,2.28-1.27,2.89-1.5-.32.04-1.41-.15-2.35-.43.13-1.13,1.78-1.76,1.17-.26-.25,1.15-2.15.15-2.05-.31.03-.77,1.7-1.62,1.46-.27-.53.76-2.6,1.08-2.66.53-.11,3.39,1.24,3.57,1.54Z"/><path d="M73.58,36.44c-.26.29-1.31-.9-1.92-.88-.79.02-1.18,1.23-.75,1.86.51.74,1.88-.02,1.5,1.38-2.15.44-3.86-1.62-2.49-3.52,1.59-2.21,4.53.2,3.67,1.17Z"/><path d="M63.59,34.68c.53-.15,1.46-3.27,2.35-2.35.43.44-1.85,4.26-2.49,4.12-.41-.09-1.87-3.83-1.48-4.42.85-1.27,1.65,2.16,1.63,2.65Z"/><path d="M83.58,48.79c-.61.6-1.04-.84-1.61-.9-.42-.04-3.12,1.21-3.09.16.02-.67,2.26-1.1,2.66-1.47.51-.47-.49-1.53.71-1.62.37.09,1.62,3.53,1.33,3.82Z"/><path d="M44.04,40.27c.66-.17,3.49,2.25,3.38,2.79-.65,1.02-1.85-.18-2.49-.74-.37-.33-2.09-1.74-.89-2.05Z"/><path d="M80.05,57.03v-1.17c5.63-.15,6,2.15,0,1.17Z"/><path d="M66.83,37.03c-.47-.32.53-3.21.81-3.74.44-.82,1.29-.4,1.13.52-.11.63-.94,3.9-1.94,3.22Z"/><path d="M51.78,34.73c.18.1,1.77,3.53,1.52,3.77-.04.04-.95.05-1.13-.05s-1.71-3.59-1.52-3.77c.35.04.85-.11,1.13.05Z"/><path d="M45.69,52.07c1.29-.81,2.61,1.19.93,1.67-1.55.45-1.4-1.37-.93-1.67Z"/><path d="M58.88,52.03c.19,1.57-.21,1.95-1.76,1.76-.19-1.57.21-1.95,1.76-1.76Z"/><path d="M22.68,33.47c-1.15,1.01-2.31-2-.12-1.43.54.14.25,1.31.12,1.43Z"/><path d="M75.94,56.57c-1.08-.5-3.58,4.26-5,4.28-.52-.57,2.83-4.66,1.42-5.54-1.43-.9-3.92,2.2-4.07,2.01.21-.53,1.18-2.93-.14-2.64-.58.12-2.41,4.23-4.12,3.82.45-1.85-.16-3.65-2.31-3.51-2.62.17-3.6,5.64-6.66,6.15-.62-1.48,3.2-6.02,2.64-6.76-.85-1.12-2.3,1.84-2.78,2.36-.79.85-4.97,4.52-5.85,4.36-2.29-.42,1.21-5.24,2.6-5.54l.15,1.77c2.19.42,2.12-3.52-.42-3.24-2.65.3-6.17,7.1-7.67,7.05-.7-.02.09-1.82.21-2.14.21-.55,3.24-5.32,1.26-4.91-.99.21-3.63,7.26-6.03,7.06.62-1.27.64-2.69.96-3.89.23-.84,1.15-1.71.8-2.87-2.89-.42-2.92,2.44-4.13,4.19-.35.51-2.89,3.01-3.51,2.58-1.54-1.07,2.8-6.63,3.28-7.89,1.39.09,5.97.21,5.22-2.22-.45-1.48-1.54.39-1.81.51-.7.29-1.54.19-2.28.19.28-.78,1.47-1.95.14-2.08-1.29-.12-1.08,1.55-1.8,1.75-.78.22-3.99-1.11-3.92,1.5.38.37,3.33-.87,2.94.14-.25.63-3.4,5.26-3.99,6.01-.29.37-2.64,2.96-2.13,1.11.11-.41,4.14-6.77.95-4.64-.94.63-2.27,3.93-3.45,4.93-1.43,1.2-1.92.56-1.29-1.14.32-.88,2.83-4.08,2.26-4.65-1.19-1.19-3.99,4.36-4.1,5.47-.17,1.71.66,2.76,2.42,2.4.51-.11,1.2-.74,1.54-.72.39.02.78.87,1.69.73.66-.1,2.28-1.37,2.43-1.37.48,0,.8,1.78,2.87,1.36,1.69-.34,2.47-1.93,3.74-2.88-.82,1.91.26,3.5,2.37,2.81.65-.21,1.05-1.05,1.6-1.05.24,0,.24.79.73,1.03,1.84.91,3.72-1.62,3.98-1.62.16,0,.71,1.14,1.21,1.43,2.28,1.34,5.49-2.33,5.7-2.02-.2,4.71,3.22,1.19,4.26,1.17.17,0,.53,2.09,2.91.85.63-.33,1.8-1.82,2.15-1.96.66-.27,1.74-.11,2.44-.65.2.25-1.48,2.96.15,2.95.86,0,3.35-3.98,4.55-4.42-2.18,4.4.37,6.04,3.69,2.66.37-.37,2.72-3.23,2.76-3.45.05-.29-.34-.75-.56-.85ZM59.18,61.15l.3-1.76,1.46.29c.38.54-1.51,1.74-1.76,1.47ZM60.97,58.18c-.28-1.08.41-1.67,1.44-1.74.47,1.19.03,2.52-1.44,1.74Z"/><path d="M50.2,37.63c-1.24-1.74-4.27-.27-4.43.85-.03.17,1.84,2.82,1.99,2.91,1.04.61,3.89-1.72,2.44-3.76ZM48.7,39.95c-.79-.04-1.94-1.66-.81-2.01,1.31-.42,2.16,1.44.81,2.01Z"/><path d="M76.09,66.44c-1.06.76.1,1.21.14,2.05-.37.33-2.68-1.18-2.36.88,1.7-.57,1.44,2.02,2.79,2.05.77.02,2.31-1.36,2.23-2.18-.04-.48-2.39-2.89-2.8-2.81ZM76.96,70.26h-.44c-.17-1.86,2.05-1.17.44,0Z"/><path d="M57.59,34.79c-2.27-3.01-3.23-2.39-3.42,1.22-.17,3.2,1.08.36,1.68.18.82-.24,1.62.38,2.44.25.09-.69-.33-1.16-.7-1.65ZM55.94,35.27h-.59v-.88c.43.1.67.47.59.88Z"/><path d="M57.13,26.01c-7.14,2.21-11.95,9.59-19.84,6.89-.87-.3-3.57-2.38-3.98-1-.25.85,1.87,2.12,2.56,2.43,8.74,3.87,14.29-4.01,21.86-6.54,22.3-7.46,34.1,11.05,31.11,31.41-1.97,13.45-16.22,39.78-32.16,39.02-3.68-.18-6.39-2.92-9.99-3.24-5.05-.46-8.45,3.4-13.24,3.25-15.98-.52-29.73-26.87-31.3-40.75C0,38.58,10.82,21.85,31.54,27.18c3.22.83,8.14,3.9,10.76,4.24,2.27.29,3.35-.08,3.65-2.47.24-1.95-.18-4.32,0-6.32,3.27,1.34,6.6,1.01,9.93.08,8.9-2.51,13.64-9.79,12.68-19.01-.62-6.03-2.51-3.17-5.85-1.8-4.26,1.75-8.91,2.47-12.74,5.2-3.09,2.21-5.16,5.28-5.79,9.07l-1.76-3.38c-.57-1.58-5.75-7.38-7.37-6.2-1.47,1.08,1.34,2.04,1.93,2.52,3.81,3.12,6.8,9.69,7.2,14.56.06.8.12,5.4-.12,5.75-.87,1.24-6.86-2.23-8.19-2.72C14.52,18.81-1.07,32.78.06,54.54c.83,15.92,14.88,44.03,32.81,45.41,5.12.39,6.63-2.11,10.78-3.03,5.24-1.16,8.42,3.06,13.62,3.05,17.89,0,32.67-28.56,33.67-43.99,1.37-21.14-11.72-36.83-33.8-29.98ZM53.69,6.99c3.96-1.84,8.77-2.37,12.4-4.94,1.83,4.15.34,10.16-2.32,13.7-3.04,4.04-11.83,7.68-16.65,5.26,3.78-1.94,7.4-4.16,10.64-6.93.92-.79,4.01-3.59,4.43-4.48.34-.73-.11-1.32-.81-1.28-.4.02-4.32,4.09-5.14,4.75-1.08.88-9.88,7.06-10.59,6.32-.15-5.63,3.08-10.1,8.03-12.4Z"/><path d="M79.76,50.56c-.24.83,1.08,1.01,1.18,1.38.29,1.12-.56,1.71-.6,2.73.5.47,4.22-1.97,4.11-2.49-.15-.7-4.33-1.95-4.7-1.62ZM81.82,52.91v-.88s.88,0,.88,0c.19.72-.31.57-.88.88Z"/><path d="M60.04,75.09c-.55.18-4.31,5.06-4.68,4.59.24-2.22,2.36-3.42,1.76-5.88-2.19-.44-2.93,1.26-4.41,2.35.11-.5,1.3-3.14.14-2.94-.79.13-2.7,3.78-3.52,4.71-.24.27-1.92,2.1-2.21,1.76-.54-1.49,2.98-5.33,2.34-6.16-.57-.75-1.63.65-1.75.57-.04-.02.11-.48-.36-.68-2.98-1.3-4.97,2.93-6.86,4.5-.81.67-3.1,2.69-3.61.98-.6-2,1.43-1.32,2.8-2.08,2.48-1.38,2.03-5.18-.72-3.95-1.69.75-2.95,3.3-4.18,4.64-1.42,1.55-4.23,3.96-2.79-.15.95-2.73,3.35-5.66,4.72-8.24.11-.28-.09-1.2-.33-1.19-1.59.03-4.31,6.18-5.31,7.63-1.68,2.43-9,9.75-10.57,3.86-.82-3.07,2.68-9.77,6.33-10.01-1.25,3.92,1.55,5.71,4.24,2.33,4.11-5.17.53-8.59-4.93-5.22-.87.54-2.31,2.21-3.12,2.47-1.77.56-4.98-.08-6.46-1.21-1.41-1.08-.31-1.72-1.05-2.48-.59-.61-1.37-.15-1.57.51-.95,3.18,5.44,5.36,7.88,4.79-1.36,2.45-3.13,5-2.94,7.94-1.31-1.33-2.53-3.57-3.39-5.28-1.85-3.66-3.26-7.58-4.17-11.58.19-1.16,7.27-9.07,8.59-10.2,1.98-1.69,5.72-4.55,3.99.46-1.28,3.7-6.67,9.89-4.13,13.81,1.22,1.88,4.04,2.28,5.6.6.32-.34.92-1.28.57-1.63-.56-.56-4.29,3.07-5.22-.52-.79-3.03,3.48-8.46,4.57-11.47.59-1.65,1.5-4.54-.88-5.18-3.22-.88-8.68,6.29-10.81,8.34.5-1.81,4.16-8.1,1.76-9.26-1.54-.74-3.9,1.05-4.85,2.2.14-3.25,1.35-6.82,3.25-9.54.47-.68,1.16-1.67,1.74-2.23.55-.54,3.6-2.6,3.67-2.82.16-.53-.41-1.29-.95-1.23-1.86.17-5.65,4.42-6.62,6.03-2.6,4.29-2.43,7.84-3.17,12.49-.13.83-1.04,2.17-.55,2.91.14.2.67.19.75.49.12.47.58,4.88.59,5.55.02.94-.45,1.32-.58,2.06-.38,2.16.85.91,1.41,1.75,2.32,7.44,5.89,14.59,11.06,20.43.83.94,5.32,5.6,6.18,5.58.39-.01,1.02-.45.91-.89-.3-1.18-6.47-5.62-5.76-6.45,2.89.7,5.54-1.6,7.5-3.52,1.32,4.09,4.88-.01,5.29,0,.16,0,.73,1.24,1.39,1.54,1.6.7,3.6-.21,4.49-1.54.68,2.67,3.12,1.35,4.55,0,.27,2.28,2.19,2.15,3.68.88.29.02-.25,1.34,1.13.89.33-.11,3.45-4.25,4.31-4.71-2.77,7.01,1.95,5.21,5,1.32.31-.39,2.25-3.31.28-2.67ZM29.93,66.72c3.22-.12-.44,5.35-1.48,5.3-1.62-.08,2.21-4.7-.73-4.41.26-.54,1.71-.88,2.21-.89ZM10.37,57.61c.32-1.84-.69-3.85-.16-5.6.26-.86,3.52-4.62,4.27-3.81.37.39-.86,3.65-1.12,4.32-.4,1.01-1.64,3.77-2.19,4.57-.24.34-.23.64-.8.52ZM42.71,79.38c-.58-1.26,3.17-5.39,3.82-4.7.81,1.23-3.36,5.21-3.82,4.7Z"/></svg>