<?xml version="1.0" encoding="UTF-8"?><svg id="i" xmlns="http://www.w3.org/2000/svg" viewBox="0 0 99.99 100"><path d="M51.97,0l4.16.38c40.96,5.19,58.74,55.28,29.19,85.02C55.98,114.93,5.3,96.88.4,56.12L.02,51.96c.05-1.3-.06-2.62,0-3.91C1.28,21.89,21.91,1.26,48.06,0h3.91ZM39.34,27.4h8.54l-8.27-2.14c-.37-.04-.23.02-.27.27-.08.57.06,1.28,0,1.87ZM80.79,37.46c.03-1.1-.02-2.2,0-3.29h-3.2c-.09.6.17,1.61-.09,2.14-.2.41-.97.56-1.13.06-.1-.31-.09-5.46,0-5.81.4-1.38,1.72.48,1.21,1.48h2.94s.39.33.44-.09c.02-.12-.18-.57-.18-.88,0-2.03.55-2.31-1.8-3-2.1-.61-5.52-.57-5.97,2.14-.21,1.23-.17,6.08.23,7.16.83,2.24,5.99,1.97,7.43.72.38-.33.12-.43.13-.63ZM17.01,27.94c-1.77-.21-3.89.15-5.69,0-.88.95.14,2.02.26,2.77.15.92.13,4.19.01,5.16-.11.88-1.09,1.92-.36,3.03.13.11.22-.1.27-.1h3.56s.2.27.27.18c.28-1.59-.7-2.89-.26-4.45,1.66.07.72,3.04,1.15,4.27h3.74c.27-1.19-.28-1.96-.49-2.98s.28-1.98-1.11-2.36c.4-.52.91-.56,1.13-1.27.67-2.17-.14-3.97-2.46-4.24ZM29.02,27.94h-8.18c.04.54-.07,1.15,0,1.68.31,2.01.59,4.31.36,6.43-.09.87-.63,1.71-.37,2.75h8.18v-3.91h-3.2c.08.92.06,1.73-1.07,1.6v-2.14s2.14,0,2.14,0v-2.14s-2.14-.1-2.14-.1v-1.85c.87-.02,1.21.41,1.07,1.24h3.2v-3.56ZM35.87,27.94c-1.74-.2-3.83.15-5.6,0,.05.6-.07,1.27,0,1.86.27,1.98.59,4.17.35,6.24-.1.84-.63,1.73-.36,2.75h4s.2.27.27.18c-.07-.58.11-1.32,0-1.87-.09-.47-.74-.7-.53-1.34,4.06.41,5-1.29,4.62-5.07-.17-1.66-1.11-2.57-2.76-2.76ZM43.61,27.94h-4.27c.06.58-.1,1.3,0,1.86.07.36.39.57.48.94.65,2.71,1.03,5.51,1.65,8.23l4.6-.2c.67-2.64.94-5.37,1.49-8.03.08-.39.41-.68.48-1.12.08-.53-.03-1.14.01-1.68h-3.74c.09.6-.13,1.47,0,2.01.04.16.36-.01.37.56.03,1.47-.58,3.39-.64,4.91-.07-1.46-.87-3.72-.82-5.08.01-.32.34-.23.37-.38.13-.55-.08-1.41,0-2.01ZM54.73,27.94c-1.81-.24-4.1.18-5.96,0,.05.6-.07,1.27,0,1.86.44,3.16.33,4.52-.02,7.65-.05.47.06,1.04.01,1.53.06.09.23-.18.27-.18h6.05c.09,0,1.01-.35,1.17-.43,1.82-.99,1.64-4.49-.37-5.35,2.43-1.33,1.73-4.68-1.16-5.07ZM62.82,27.94h-4.45c-.27,1.02.26,1.91.36,2.75.14,1.17.13,4.18,0,5.36-.09.87-.63,1.71-.37,2.75h7.83v-5.16h-2.85c-.08.99.41,3.04-1.07,2.85.18-1.8-.25-4.06-.01-5.79.08-.58.46-.65.54-1.06.1-.5-.06-1.16,0-1.69ZM71.54,27.94h-4.27c.04.54-.07,1.15,0,1.68.31,2.01.59,4.31.36,6.43-.1.88-.79,1.89-.19,2.85.13.11.22-.1.27-.1h3.83c-.04-.54.07-1.15,0-1.68-.4-2.61-.58-4.65,0-7.16.13-.55-.08-1.41,0-2.01ZM86.13,38.79h4s.2.27.27.18c-.06-.58.1-1.3,0-1.86-.07-.36-.39-.57-.48-.94-.65-2.71-1.04-5.5-1.66-8.21h-4.76c-.62,2.59-.99,5.24-1.5,7.85-.2,1.03-.78,1.92-.48,3.17,1.14-.33,2.59-.19,3.73,0-.06-.59.09-1.31.02-1.88-.03-.26-.66-.46-.37-1.14h1.6c-.2.97-.51,1.77-.35,2.85ZM21.37,41.28h-10.32v5.34h2.67c.16-.88-.51-2.66.71-2.85v6.49c0,.34-.61.52-.68.74-.17.53.06,1.43-.03,2.02h4.98c-.08-.61.13-1.45-.04-2.01-.09-.3-.68-.66-.68-.75v-6.49c1.22.19.55,1.97.71,2.85h2.67v-5.34ZM28.93,41.28c-1.99-.25-4.45.18-6.49,0,.05.66-.07,1.39,0,2.04.39,3.08.41,4.56,0,7.67-.09.68.15,1.4-.19,2.04h4.63c.24-1.66-.56-2.98-.35-4.63.68-.13,1.24.56,1.24,1.16v3.03c0,.06.24.27.18.44h3.91c-.05-.66.08-1.39,0-2.04-.03-.26-.29-.46-.34-.73-.19-1.18.13-2.87-1.43-3.11.07-.3.52-.28.8-.53.99-.88.99-3.03.34-4.09-.4-.66-1.57-1.16-2.31-1.25ZM37.56,41.28h-4.45c-.26,1.2.26,2.23.37,3.28.22,2.15-.1,4.36-.36,6.43-.08.65.04,1.37,0,2.04h4.45c-.05-.66.07-1.39,0-2.04-.4-3.11-.4-4.57,0-7.67.08-.65-.04-1.38,0-2.04ZM38.98,53.03h6.14c.22,0,1.5-.42,1.75-.56.37-.22.73-.65.92-1.04.66-1.38.65-6.69.14-8.15-.23-.64-.53-1.17-1.17-1.5-.22-.11-1.47-.5-1.64-.5h-6.14c.09.65-.14,1.6,0,2.19.61,2.59.38,5,0,7.69-.08.59.04,1.26,0,1.86ZM58.55,41.28h-8.9c.05.66-.07,1.39,0,2.04.4,3.1.4,4.56,0,7.67-.08.65.04,1.38,0,2.04h8.9v-4.27h-3.56l-.09,1.43-1.16.35v-2.21s2.31-.1,2.31-.1v-2.32h-2.31s0-2.14,0-2.14l1.08.25.16,1.17h3.56v-3.91ZM63.89,41.28h-4.09c-.26,1.2.26,2.23.37,3.28.22,2.15-.1,4.36-.36,6.43-.08.65.04,1.37,0,2.04h3.74c.3-1.91-1.01-3.39-.44-5.34l2.22,5.34h3.56c.21-2.69-.29-5.81,0-8.45.07-.67.44-.98.52-1.43.1-.57-.05-1.27,0-1.86h-3.74c-.18,1.95.73,3.72.27,5.7l-2.05-5.7ZM80.43,41.28h-10.32v5.34h2.67c.16-.88-.51-2.66.71-2.85v6.49c0,.34-.61.52-.68.74-.17.53.06,1.43-.03,2.02h4.8c-.14-.58.17-1.5.09-1.99-.06-.38-.62-.49-.62-.59v-6.67c1.22.19.55,1.97.71,2.85h2.67v-5.34ZM90.22,41.28h-8.9c.06.58-.1,1.3,0,1.86.07.36.37.54.45.8.21.7.18,4.89.08,5.79-.07.67-.44.98-.52,1.43-.1.57.05,1.27,0,1.86h8.9v-4.27h-3.38c.1.9-.15,1.93-1.24,1.78v-2.21s2.31-.1,2.31-.1v-2.32h-2.31s0-2.13,0-2.13c1.11-.1,1.23.45,1.24,1.42h3.38v-3.91ZM50.85,56.82c-.35-.16-3.22-.16-3.95-.24-2.64-.29-5.26-.75-7.92-.89-.07.07.56,1.88.63,1.96.11.14,1,.49,1.16.66.96,1.01.77,2.25,1.23,3.36.26.63,1.11.97.9,1.85l-.71.09c.66,1.21,2.51,1.24,1.6,2.94.73-.28,1.56,1.77,1.69,1.78,1.22-.9-.42-1.43-.45-1.53-.17-.54-.21-1.54-.36-2.07-.02-.09-.7-1.37-.85-1.67-.46-.94-1.25-1.4-.92-2.72l1.03.56c-.13.65.32,1.88.67,2.45.2.32,1.38,1.48,1.45,1.66.11.28-.03.61.08.81.03.06.4.16.58.4.59.79,2.24,3.08,1.84,4.01-.06.13-.42-.01-.31.33.3.2.39.77.57.95.42.41,3.16,1.8,3.87,2.09.38.16,2.71.97,2.93.96.4,0,.73-.4,1.11-.48,1.3-.27,1.71.91,2.07.84.76-.65.38-1.34,1.71-1.06.08-.5-.22-.83-.71-.89.23-1.05,1.02-.51,1.6-.79.25-.12.47-.8.62-.8.48-.02-.19,1.05.36.53l.44-3.21c-.23-.24-2.4.35-2.68.62-.35.34-.07,1.09-.21,1.57-.2.67-2.14.88-2.73,1.32-.36-.48-.95-.42-1.35-.74-.36-.29-1.4-2.32-1.49-2.75-.03-.12.05-1.67.08-1.9.06-.51.43-.72.46-1.05.04-.35-.29-1.33-.19-1.54.15-.3,1.16-.82,1.43-1.05.16-.13.19-.4.29-.49s.58.2.78-.76c.18-.85-.2-.81-.42-1.39-.09-.25,0-.58-.08-.81-.34-.96-3-.21-3.86-.85l-.02-1.76c-.08-.08-1.48.08-1.84,0-.13-.03-.12-.27-.17-.3Z"/><path d="M26.53,46.09v-2.31c1.93-.17,1.89,2.56,0,2.31Z"/><path d="M43.07,43.77c1.28-.05,1.35.18,1.43,1.33.07,1.01.14,4.07-.09,4.92-.16.58-.84.52-1.35.52v-6.76Z"/><path d="M53.71,36.26c-.24.24-.87.22-1.2.22.08-.46-.23-2.18.28-2.3.97-.24,1.57,1.43.92,2.08Z"/><path d="M52.5,32.03l.03-1.49.26-.29c1.61.12,1.37,2.17-.29,1.77Z"/><path d="M16.18,30.64c.17,1.08.08,1.93-1.21,1.75v-2.14s1.21.38,1.21.38Z"/><path d="M86.13,33.99h-1.07s.36-3.2.36-3.2c.36.07.29.38.35.62.2.8.21,1.76.36,2.58Z"/><path d="M34,30.25l1.08.29c.21,1.08.68,3.23-1.08,2.91v-3.2Z"/></svg>