<?xml version="1.0" encoding="UTF-8"?><svg id="b" xmlns="http://www.w3.org/2000/svg" viewBox="0 0 100 67.37"><path d="M90.69,40.2c-6.74-2.49-13.79-4.45-20.89-5.63-.27-.28.94-5.21.55-6.08-.29-.64-3.19-1.03-3.91-1.25,1.64-4.85,1.61-10.71-2.61-14.22-.62-.52-2.48-1.81-3.27-1.53-2.32,2.62-5.81,3.65-9.21,3.96l-1.06-.13c2.95-.69,7.27-1.91,9.04-4.56,1.86-2.77,1.37-6.47-.08-9.32-1.3-2.55-1.53-1.22-2.88.02-1.53,1.41-3.43,2.44-4.79,4.03-.82.97-1.47,2.17-1.93,3.35-.32.04-.2,0-.25-.18-.39-1.3-.85-2.32-1.73-3.36-.56-.66-2.71-2.78-3.61-2.23-.97.58,1.48,1.78,1.93,2.17,1.65,1.46,2.43,3.54,2.76,5.69.11.71.31,2.56.14,3.18-.09.34-.6-.02-.81-.14-2.6-1.51-3.72-3.1-7.19-3.12-7.06-.03-10.11,6.14-9.35,12.46.16,1.32.58,2.67.98,3.93-.71.17-3.75.67-3.95,1.33l.72,6.12c-5.84,1.01-11.65,2.61-17.24,4.56-2.75.96-6.08,2.12-8.68,3.37-2.73,1.31-3.87,4.14-3.19,7.08,1.12,4.81,4.34,10.08,5.7,14.92.6,1.43,2,2.61,3.6,2.73,1.41.11,5.46-1.8,7.08-2.36,21.18-7.43,45.24-7.52,66.46-.12,3.73,1.3,8.82,4.88,11.17-.25,2.14-4.65,3.61-10.12,5.62-14.88,1.28-6.46-4.4-7.81-9.12-9.56ZM45.33,19.99c.58-.36,1.26-.28,1.73-.51.33-.16.53-.8.81-1.05.2-.18.66-.39.92-.57.3-.2.39-.55.81-.56.97,0,1.38,1.16,1.86,1.75.38.46.88.78,1.31,1.17.3.27.42.68.83.79.32.03.58-.61.79-.78.23-.19.57-.23.8-.44.47-.41.27-.9,1.22-.48.75.33.99,1.15,1.58,1.53.4.26.85.25,1.26.48.43.25.54.71.86.88.33.18.82.09,1.12.37.95,1.39,2.16,2.6,2.85,4.17-.83.08-1.13-.94-1.56-1.48-.61-.76-1.29-1.45-1.86-2.25-.41-.09-.52,1.12-.59,1.39-.04.13-.03.38-.21.35.1-.82-.19-2.89-1.11-3.17-.45-.14-.74.05-1.19-.3-.5-.39-.7-1.64-1.37-1.74-.66-.1-.55.48-.86.88-.25.32-.61.38-.87.62-.36.33-1.14,1.66-1.01,2.1.06.21.87,1.29.69,1.49-.26.06-.28-.13-.4-.28-.31-.4-.65-1.24-1-1.54-.12-.1-1.01-.53-1.15-.53-.51-.03-1.04.64-1.45.9-.15.09-.41.07-.58.17-.35.2-.46.84-1,.8-.05-.04.69-1.11.79-1.2.28-.25.67-.29.95-.48.4-.28.85-1.04,1.41-1.02.46.02.96.7,1.44.02.06-.28-.79-1.27-1.04-1.42-.28-.17-.61-.13-.88-.36-.44-.39-.56-1.88-1.61-1.99-1.07.85-1.97,1.66-2.52,2.95-.93.8-.77,2.19-2.26,2.27l1.61-2.42c-1.05-.2-1.47,1.04-2.04,1.68-.25.28-.66.45-.93.8-.31.41-.39.91-.68,1.31-.1.14-1.45,1.37-1.31.93l.75-2.22c-.81-.17-1-1.22-1.8-1.08-.45.08-1.38,1.42-1.81,1.8-.86.78-2.03,1.81-2.92,2.54-.32.26-.75.68-1.18.44l2.3-2.79c1.44-.42,1.97-1.89,3.29-2.42,1.62-.64,2.02.84,3.02.53.46-.14,1.6-1.64,2.2-2.02ZM59.47,31.24c-.41.03-.96-.31-1.29-.02-.05.04-.4.76-.42.84-.07.47.75.58.36.72-.12.04-1.55-.09-1.37-.31l.63-.21,2.12-4.37h.59c.41,1.33.54,3.22,1.03,4.48.13.32.28.45.47.71l-2.24-.12.38-.31-.27-1.41ZM53.65,30.23l-.13,1.92.38.32h-2.24l.38-.32.18-4.41-.31-.37c1.49.23,5.06-.38,3.98,2.18l-.87.55c1.05.17.88,1.15.87,1.99l.49-.25c.17,1.14-1.68,1.11-1.86.18-.14-.73.38-1.97-.87-1.8ZM46.07,27.93c-.07-.39-.46-.16-.37-.56h2.67s.82.26.93.31c1.74.78,1.82,3.33.21,4.31-.24.15-1.03.47-1.27.47h-2.55c-.09-.38.25-.19.44-.36.18-.26.03-3.62-.07-4.17ZM42.58,28.07l-.48-.45,2.23-.12-.38.32.31,4.41.44.18c-.65.34-1.61.17-2.36.31-.14-.4.47-.25.5-.45l-.27-4.19ZM40.05,31.72c-.3-.61-2.68-.4-2.91-2.06-.14-1.03.79-1.88,1.77-1.87.56,0,1.25.64,1.33-.04l.24.08c.06.28.32,1.69.06,1.79-.1-1.01-1.93-2.22-2.46-1.08-.49,1.07,1.39,1.22,1.96,1.45,1.86.76,1.04,3.21-.99,3.11-.33-.02-.88-.29-1.11-.26-.15.02-.13.48-.45.38l-.25-1.99,1.05,1.24c.64.63,2.27.34,1.74-.75ZM92.63,64.06c-.63,1.02-1.69,1.47-2.89,1.32-23.29-9.76-50.23-10.59-74.04-2.1-1.38.49-4.15,1.89-5.37,2.08-1.62.25-2.51-.51-3.16-1.87-2.13-4.51-3.56-9.84-5.54-14.46-.8-4.17,3.68-5.13,6.68-6.3,11.6-4.54,23.98-7.41,36.49-7.85,16.01-.56,31.08,1.8,46.01,7.45,1.49.56,4.78,1.68,5.97,2.47,1.19.79,1.58,2.03,1.71,3.39-1.46,5.43-3.91,10.6-5.87,15.88Z"/><path d="M14.02,51.6c.08.27.67,0,.93,0,1.83-.07,3.38.46,3.54,2.55.23,2.86-2.69,3.78-4.81,4.63-1.18.47-2.42.87-3.63,1.27l.08-.37.91-.25-3.61-10.1c-.16-.49-1.09.33-1.23.17v-.37c2.28-.41,5.38-2.5,7.64-2.46,3.15.05,2.85,4.2.19,4.94ZM11.79,52.46c3.06-.75,1.18-5.92-1.61-4.41l1.61,4.41ZM13.9,58.3c2.14-.58,2.13-2.17,1.42-3.97-.64-1.62-1.5-2.34-3.28-1.6l1.85,5.58Z"/><path d="M33.52,45.88l-.37-.08c-.4-1.43-1.59-3.74-3.29-3.78-1.32-.03-1.82,1.31-1.92,2.43-.16,1.76.83,7.72,2.23,8.82.62.48,1.72.69,2.1-.12-.42-1.18-.34-2.97-.76-4.08-.06-.16-.12-.2-.29-.22l-.68.13v-.37s4.72-.75,4.72-.75c.08.52-.69.32-.75.37l.87,4.97c-1.6-.58-2.74.71-4.22.94-7.78,1.2-8.52-12.37-1.17-12.44,1.07,0,1.89.69,2.65-.54l.87,4.72Z"/><path d="M48.8,39.79l.12,4.22h-.37c-.36-1.7-1.73-3.75-3.67-3.74-.99,0-1.71.7-1.69,1.69.06,2.87,5.15,2.55,6.1,5.46s-1.52,5.28-4.42,5.17c-1.25-.05-3.02-1.22-3.85.24l-.19-.43-.12-4.54h.37c.34,2.04,2.47,5.16,4.88,4.19.58-.24.94-.91.97-1.52.12-2.21-2.82-2.65-4.27-3.57-3.66-2.31-1.92-7.16,2.2-7.06.99.02,2.52.94,3.33.38.19-.13.23-.57.58-.5Z"/><path d="M91.78,52.22c-.13.04-.35-.08-.36-.18,0-.08.34-1.1.36-1.49.12-2.18-1.32-2.68-3.11-3.24l-1.75,4.72c1,.65,1.99.61,2.72-.38.22-.3.14-.79.64-.66l-1.67,4.6c-.57.24-.12-.49-.1-.72.16-1.37-.41-2.31-1.82-2.38l-1.74,5.32c2.18.82,3.72,1.15,5.06-1.07.27-.44.42-1.26.89-1.4.15.18-1.36,3.91-1.61,4.42l-8.32-3.06v-.37s1.11.24,1.11.24l3.62-10.35-.88-.33.19-.37,7.83,3.1-1.06,3.6Z"/><path d="M68.04,41.42l2.23,11.99.52.54-3.83-.51c-.21-1.77-.82-3.87-2.08-5.19-.83-.87-.87-.41-1.28.44s-1.57,2.81-.76,3.58c.41.39.97.18,1.36.5-.16.24-.3.18-.54.18-1.05-.04-2.34-.51-3.44-.55-.29-.44.64-.27.9-.34,1.02-.26,2.15-3.52,2.59-4.49-.9-.58-2.67-.53-2.99.67.44-.06.54-.52,1.05-.49,1.13.06,1.29,1.77.43,2.29s-1.92-.26-1.93-1.21c-.02-2.02,2.19-2.25,3.68-1.63l2.68-5.28c.33-.49.85-.58,1.41-.49ZM65.57,45.01l-.28.16-.97,2.25.8.59,1.19,1.72-.74-4.72Z"/><path d="M60.85,40.41l-.13,5.22c-.33.03-.21.02-.24-.19-.25-1.32-.23-2.61-1.07-3.78-.35-.49-1.37-1.37-1.9-.8l-.27,11.1.91.02.21.35-5.47-.12v-.37s1.04-.02,1.04-.02l.2-.29.37-10.99c-1.5-.19-2.39,1.27-2.77,2.51-.2.67-.21,1.64-.43,2.18-.06.15-.15.31-.28.15l.12-5.22,9.69.25Z"/><path d="M82.96,44.76l-1.12,4.78-.37.31c.3-1.42.44-4.44-.93-5.34-.2-.13-.69-.39-.87-.13l-2.54,10.51c-.08.71,1.08.26,1.11.91l-5.34-1.24v-.37s1.24.24,1.24.24l2.61-10.87c.01-.26,0-.16-.18-.19-2.08-.32-3.34,2.5-3.79,4.14l-.37.08,1.25-5.21,9.31,2.36Z"/><path d="M24.09,54.94l1.24-.24v.37s-5.22,1.37-5.22,1.37c-.34-.3,1.07-.58,1.11-.63l-2.47-9.55c-.05-.04-1.35.53-1.12.06,1.2-.57,2.78-.52,3.33-2.02.69-1.88-1.58-3.97-2.95-2.02.4.03.67-.35,1.07-.36,1.69-.07,2.05,2.71.21,3.07-2.33.46-2.9-4.06.4-3.7,1.11.12,1.79,1.39,1.77,2.42-.01.94-.16.54.09,1.55.82,3.24,1.81,6.43,2.55,9.69Z"/><path d="M53.65,29.86l.13-2.11c1.34-.27,1.22,2.56-.13,2.11Z"/><path d="M47.56,27.81c.1-.35.92-.05,1.11.13.59.52.5,3.34.01,3.95-.18.22-1.13.48-1.13.15v-4.22Z"/><path d="M59.11,29.48l.25,1.49-.99-.12s.41-1.04.49-1.19c.07-.13-.07-.23.26-.18Z"/></svg>