<?xml version="1.0" encoding="UTF-8"?><svg id="c" xmlns="http://www.w3.org/2000/svg" viewBox="0 0 179.72 34.05"><path d="M26.32,1.55l.35,7.45h-.89c-.17-1.31-.41-2.25-.7-2.81-.48-.91-1.13-1.57-1.93-2s-1.86-.64-3.18-.64h-4.48v24.28c0,1.95.21,3.17.63,3.66.59.66,1.51.98,2.74.98h1.1v.87H6.49v-.87h1.12c1.34,0,2.3-.41,2.86-1.22.34-.5.52-1.64.52-3.42V3.54h-3.82c-1.48,0-2.54.11-3.16.33-.81.3-1.51.87-2.09,1.71s-.92,1.98-1.03,3.42h-.89L.38,1.55h25.94Z"/><path d="M32.98,19.95c-.02,3.19.76,5.69,2.32,7.5s3.4,2.72,5.51,2.72c1.41,0,2.63-.39,3.67-1.16s1.91-2.1,2.61-3.97l.73.47c-.33,2.14-1.28,4.09-2.86,5.85s-3.55,2.64-5.93,2.64c-2.58,0-4.79-1-6.62-3.01s-2.75-4.71-2.75-8.1c0-3.67.94-6.54,2.82-8.59s4.25-3.08,7.09-3.08c2.41,0,4.38.79,5.93,2.38s2.32,3.71,2.32,6.36h-14.84ZM32.98,18.59h9.94c-.08-1.38-.24-2.34-.49-2.91-.39-.88-.97-1.56-1.75-2.06s-1.58-.75-2.43-.75c-1.3,0-2.46.5-3.48,1.51s-1.62,2.41-1.79,4.21ZM44.16.75l-6.91,8.09h-.8l2.46-8.09h5.25Z"/><path d="M51.12,20.79h12.12v3.54h-12.12v-3.54Z"/><path d="M94.05.82l.73,10.8h-.73c-.97-3.23-2.35-5.56-4.15-6.98s-3.95-2.13-6.47-2.13c-2.11,0-4.02.54-5.72,1.61s-3.04,2.78-4.02,5.12-1.46,5.26-1.46,8.74c0,2.88.46,5.37,1.38,7.48s2.31,3.73,4.16,4.85,3.96,1.69,6.34,1.69c2.06,0,3.88-.44,5.46-1.32s3.31-2.64,5.2-5.26l.73.47c-1.59,2.83-3.45,4.9-5.58,6.21s-4.65,1.97-7.57,1.97c-5.27,0-9.34-1.95-12.23-5.86-2.16-2.91-3.23-6.33-3.23-10.27,0-3.17.71-6.09,2.13-8.74s3.38-4.71,5.87-6.18,5.21-2.19,8.17-2.19c2.3,0,4.56.56,6.8,1.69.66.34,1.12.52,1.41.52.42,0,.79-.15,1.1-.45.41-.42.7-1.01.87-1.76h.82Z"/><path d="M117.49,11.86v13.01c0,2.48.06,4,.18,4.56s.3.94.56,1.16.56.33.9.33c.48,0,1.03-.13,1.64-.4l.33.82-6.42,2.65h-1.05v-4.55c-1.84,2-3.25,3.26-4.22,3.77s-1.99.77-3.07.77c-1.2,0-2.25-.35-3.13-1.04s-1.5-1.59-1.84-2.68-.52-2.64-.52-4.64v-9.59c0-1.02-.11-1.72-.33-2.11s-.54-.69-.97-.9-1.21-.31-2.33-.29v-.87h7.52v14.37c0,2,.35,3.31,1.04,3.94s1.54.94,2.52.94c.67,0,1.43-.21,2.29-.63s1.86-1.23,3.04-2.41v-12.16c0-1.22-.22-2.04-.67-2.47s-1.37-.66-2.78-.69v-.87h7.31Z"/><path d="M130.08,11.23v17.25c0,1.34.1,2.24.29,2.68s.48.78.87,1,1.08.33,2.1.33v.84h-10.43v-.84c1.05,0,1.75-.1,2.11-.3s.64-.54.86-1.01.32-1.37.32-2.7v-8.27c0-2.33-.07-3.84-.21-4.52-.11-.5-.28-.85-.52-1.04s-.55-.29-.96-.29c-.44,0-.97.12-1.59.35l-.33-.84,6.47-2.62h1.03ZM128.13,0c.66,0,1.21.23,1.68.69s.69,1.02.69,1.68-.23,1.22-.69,1.69-1.02.7-1.68.7-1.22-.23-1.69-.7-.7-1.03-.7-1.69.23-1.21.69-1.68,1.03-.69,1.7-.69Z"/><path d="M151.17,30.91c-1.05,1.09-2.07,1.88-3.07,2.36s-2.08.71-3.23.71c-2.34,0-4.39-.98-6.14-2.94s-2.62-4.48-2.62-7.56.97-5.89,2.91-8.45,4.43-3.83,7.48-3.83c1.89,0,3.45.6,4.69,1.8v-3.96c0-2.45-.06-3.96-.18-4.52s-.3-.95-.55-1.15-.56-.3-.94-.3c-.41,0-.95.12-1.62.38l-.3-.82,6.4-2.62h1.05v24.82c0,2.52.06,4.05.18,4.61s.3.94.56,1.16.56.33.9.33c.42,0,.98-.13,1.69-.4l.26.82-6.38,2.65h-1.08v-3.07ZM151.17,29.27v-11.06c-.09-1.06-.38-2.03-.84-2.91s-1.09-1.54-1.86-1.98-1.53-.67-2.26-.67c-1.38,0-2.6.62-3.68,1.85-1.42,1.62-2.13,4-2.13,7.12s.69,5.57,2.06,7.25,2.91,2.52,4.59,2.52c1.42,0,2.8-.71,4.12-2.13Z"/><path d="M172.17,30.23c-2.2,1.7-3.59,2.69-4.15,2.95-.84.39-1.74.59-2.7.59-1.48,0-2.71-.51-3.67-1.52s-1.44-2.35-1.44-4.01c0-1.05.23-1.95.7-2.72.64-1.06,1.75-2.06,3.34-3s4.22-2.08,7.91-3.42v-.84c0-2.14-.34-3.61-1.02-4.41s-1.67-1.2-2.96-1.2c-.98,0-1.77.27-2.34.8-.59.53-.89,1.14-.89,1.83l.05,1.36c0,.72-.18,1.27-.55,1.66s-.85.59-1.44.59-1.05-.2-1.42-.61-.55-.96-.55-1.66c0-1.34.69-2.58,2.06-3.7s3.3-1.69,5.79-1.69c1.91,0,3.47.32,4.69.96.92.48,1.6,1.24,2.04,2.27.28.67.42,2.05.42,4.12v7.29c0,2.05.04,3.3.12,3.76s.21.77.39.93.39.23.62.23c.25,0,.47-.05.66-.16.33-.2.96-.77,1.9-1.71v1.31c-1.75,2.34-3.42,3.52-5.02,3.52-.77,0-1.38-.27-1.83-.8s-.69-1.44-.7-2.72ZM172.17,28.71v-8.18c-2.36.94-3.88,1.6-4.57,1.99-1.23.69-2.12,1.41-2.65,2.16s-.8,1.57-.8,2.46c0,1.12.34,2.06,1.01,2.8s1.45,1.11,2.32,1.11c1.19,0,2.75-.78,4.69-2.34Z"/></svg>